<?xml version="1.0" encoding="UTF-8"?>
<svg version="1.1" xmlns="http://www.w3.org/2000/svg" width="500" height="500">
<path d="M0 0 C-0.37799907 25.78538399 -1.39604047 51.48514624 -2.98364258 77.2253418 C-3.05008972 78.31861282 -3.11653687 79.41188385 -3.18499756 80.5382843 C-3.30917283 82.56998842 -3.43659553 84.60149826 -3.56817627 86.63273621 C-3.93103875 92.54255513 -4.05160321 98.41523605 -4.00390625 104.33624268 C-3.9984842 108.03365398 -4.19813072 111.68503041 -4.4375 115.375 C-4.51871094 116.68210937 -4.59992188 117.98921875 -4.68359375 119.3359375 C-4.96592117 122.60535871 -5.40583749 125.77454637 -6 129 C-7.11632812 129.01417969 -8.23265625 129.02835938 -9.3828125 129.04296875 C-34.19225159 129.67931475 -58.99810076 136.29750487 -79.328125 150.93359375 C-81 152 -81 152 -83 152 C-83 152.66 -83 153.32 -83 154 C-87.47058824 158 -87.47058824 158 -90 158 C-90.33 158.99 -90.66 159.98 -91 161 C-91.66 161 -92.32 161 -93 161 C-93 161.66 -93 162.32 -93 163 C-93.66 163 -94.32 163 -95 163 C-95.54510736 146.89165808 -95.99220043 131.45805939 -90.68261719 116.04638672 C-90.04841648 114.14514556 -89.55306752 112.19912502 -89.0703125 110.25390625 C-87.83640198 106.50263814 -86.97522138 104.6241083 -84 102 C-78.05071261 99.77506325 -71.67452617 99.17935701 -65.41162109 98.37109375 C-53.74880138 96.57645051 -43.01897959 88.55658606 -35.97265625 79.3515625 C-30.09232601 70.47512319 -27.71775395 61.90395428 -26.3125 51.4375 C-26.11817383 50.06754883 -26.11817383 50.06754883 -25.91992188 48.66992188 C-25.60576454 46.4475496 -25.29926203 44.22441823 -25 42 C-45.77444849 41.50273926 -64.95257277 42.84624607 -80.96484375 57.83984375 C-86.23944145 63.48377871 -89.57065291 70.14130583 -93 77 C-93.66 77 -94.32 77 -95 77 C-95.04947698 73.06734104 -95.08575578 69.13480286 -95.10986328 65.2019043 C-95.12485495 63.20680382 -95.15026731 61.21179054 -95.17578125 59.21679688 C-95.18222656 57.96318359 -95.18867188 56.70957031 -95.1953125 55.41796875 C-95.20578613 54.26063232 -95.21625977 53.1032959 -95.22705078 51.91088867 C-95 49 -95 49 -93 46 C-92.34 46 -91.68 46 -91 46 C-90.67 45.01 -90.34 44.02 -90 43 C-89.34 43 -88.68 43 -88 43 C-87.75507813 42.40960938 -87.51015625 41.81921875 -87.2578125 41.2109375 C-83.39125583 34.41444347 -75.09694998 31.46524781 -68.0625 29 C-57.30527902 25.22458681 -47.63133094 19.70698177 -40.78125 10.33203125 C-34.97231285 2.38399225 -23.49836608 1.68025081 -14.34521484 0.23291016 C-9.57784793 -0.24055102 -4.78449084 -0.09446033 0 0 Z " fill="#F3F2F1" transform="translate(355,182)"/>
<path d="M0 0 C7.29314422 -0.18839024 14.19889385 0.17721546 21.375 1.5 C22.23738281 1.62375 23.09976563 1.7475 23.98828125 1.875 C27.57693857 2.53854219 30.12176369 3.02207271 32.61523438 5.79858398 C33.87835363 7.82018477 34.96021263 9.85647969 36 12 C40.10267313 18.31595731 44.82054464 22.70840667 51 27 C52.546875 28.0828125 52.546875 28.0828125 54.125 29.1875 C61.54517932 33.20820182 70.94883074 34.73931772 79.1875 36 C82.20830048 36.53255594 83.87360089 36.92100055 86.5 38.5625 C88.73583445 42.19573099 89.85702616 45.90741626 91 50 C91.28101563 50.89976562 91.56203125 51.79953125 91.8515625 52.7265625 C94.22511503 60.95635677 94.31340245 68.50331136 94 77 C93.34 77 92.68 77 92 77 C91.25556641 75.62328125 91.25556641 75.62328125 90.49609375 74.21875 C82.80940068 60.22473321 74.26893225 50.46452553 58.76953125 44.77734375 C47.40249774 41.58687877 35.69339665 41.74237315 24 42 C26.77467023 61.16687094 29.40624331 76.50587216 44.94921875 89.77734375 C52.8428547 95.52827699 60.67047634 97.90517918 70.17041016 99.2175293 C81.76070614 100.88657192 81.76070614 100.88657192 85.5 104.24609375 C87.21331454 107.46302028 88.10624914 110.46630438 89 114 C89.46718715 115.32236019 89.94424601 116.64126271 90.4296875 117.95703125 C95.41329529 132.55554514 94.49200413 147.79328782 94 163 C93.34 163 92.68 163 92 163 C92 162.34 92 161.68 92 161 C91.01 160.67 90.02 160.34 89 160 C89 159.34 89 158.68 89 158 C88.1028125 157.566875 88.1028125 157.566875 87.1875 157.125 C85 156 85 156 82 154 C82 153.34 82 152.68 82 152 C80.88238281 151.58814453 80.88238281 151.58814453 79.7421875 151.16796875 C77.20774044 150.08848204 75.33360144 148.93125407 73.125 147.3125 C61.90315476 139.72616165 50.10524068 135.82610506 37 133 C35.84886719 132.71253906 34.69773438 132.42507813 33.51171875 132.12890625 C24.03693438 129.84490402 14.70096207 129.31896587 5 129 C4.11906878 123.54498527 3.746213 118.17864916 3.53515625 112.66015625 C3.49755692 111.75795853 3.45995758 110.8557608 3.42121887 109.92622375 C3.29849763 106.97176926 3.18042958 104.01714932 3.0625 101.0625 C2.89159373 96.87881044 2.71799558 92.69523785 2.54296875 88.51171875 C2.49895935 87.45607727 2.45494995 86.40043579 2.40960693 85.31280518 C2.12687957 78.64968854 1.79891526 71.99066859 1.42578125 65.33203125 C0.21279263 43.52854443 -0.25958855 21.83738732 0 0 Z " fill="#F2F1F0" transform="translate(146,182)"/>
<path d="M0 0 C4.62 0 9.24 0 14 0 C14 2.64 14 5.28 14 8 C12.35 8.66 10.7 9.32 9 10 C9 50.26 9 90.52 9 132 C10.32 131.67 11.64 131.34 13 131 C37.13879824 129.54416199 60.13075158 131.95752429 83 140 C84.16402344 140.37898437 85.32804687 140.75796875 86.52734375 141.1484375 C95.12148176 144.02926216 103.17016129 147.75504061 111.15258789 152.02050781 C112.41729557 152.69105191 113.69627165 153.335169 114.98608398 153.95605469 C119.75546609 156.37453876 119.75546609 156.37453876 120.98046875 159.5078125 C121.04878906 160.37148438 121.11710937 161.23515625 121.1875 162.125 C121.34096388 164.71607487 121.34096388 164.71607487 122 167 C123.86984383 168.27346611 123.86984383 168.27346611 126 169 C126.763125 169.515625 127.52625 170.03125 128.3125 170.5625 C131.73807882 172.39478635 134.10131271 172.93392055 138 173 C140.8503414 171.95380728 143.38353051 170.52672344 146 169 C146.72445312 168.71253906 147.44890625 168.42507813 148.1953125 168.12890625 C150.19537085 167.16473826 150.19537085 167.16473826 150.51171875 165.046875 C150.56972656 164.28890625 150.62773437 163.5309375 150.6875 162.75 C151.44229928 158.77937522 152.40157783 157.15661363 155.75 154.875 C157.47809356 153.87770594 159.23102409 152.92283639 161 152 C162.01449219 151.44699219 163.02898437 150.89398438 164.07421875 150.32421875 C178.33384891 142.85488867 193.23359963 137.2542212 209 134 C210.01175293 133.77570313 210.01175293 133.77570313 211.04394531 133.546875 C222.13848363 131.14020563 233.12514996 130.73369438 244.4375 130.75 C245.12965607 130.75068481 245.82181213 130.75136963 246.53494263 130.7520752 C258.1602132 130.7900533 258.1602132 130.7900533 263 132 C263 91.41 263 50.82 263 9 C261.35 9 259.7 9 258 9 C258 6.03 258 3.06 258 0 C262.62 0 267.24 0 272 0 C272 46.86 272 93.72 272 142 C260 141 260 141 255.40234375 140.578125 C235.01995551 138.9509786 214.35171809 141.37314805 195 148 C194.32469238 148.22558594 193.64938477 148.45117188 192.95361328 148.68359375 C182.50469915 152.21899695 172.76491762 156.89837845 163 162 C162.34 162.33 161.68 162.66 161 163 C160.17803708 164.55740343 159.41567171 166.1465991 158.6875 167.75 C155.37295924 174.4943699 151.57558401 178.43261213 144.5859375 181.265625 C137.69440618 183.22273661 131.15124634 182.90129909 124.625 179.9375 C118.8628458 176.6540895 114.98280235 172.84276381 112.80078125 166.53125 C110.47687617 161.97417801 108.16392106 160.87804444 103.625 158.875 C102.91545166 158.54153564 102.20590332 158.20807129 101.47485352 157.86450195 C95.99926578 155.33226473 90.41408485 153.09497411 84.75 151.01953125 C82.6109194 150.22649143 80.5131197 149.3217739 78.4375 148.375 C69.35010766 144.74004306 59.65580404 143.27968487 50 142 C49.31147949 141.90831543 48.62295898 141.81663086 47.91357422 141.72216797 C35.96247967 140.15363657 25.15297335 139.70417694 13.20117188 141.28808594 C12.50314453 141.37864258 11.80511719 141.46919922 11.0859375 141.5625 C10.4676709 141.64628906 9.8494043 141.73007812 9.21240234 141.81640625 C6.15151288 142.07041076 3.07141053 142 0 142 C0 95.14 0 48.28 0 0 Z " fill="#D5D5D5" transform="translate(114,208)"/>
<path d="M0 0 C13.57957659 -0.77474605 28.71445118 0.68668483 40 9 C41.11568359 9.81210938 41.11568359 9.81210938 42.25390625 10.640625 C51.72490635 18.2687063 56.76451937 28.62143297 60.78515625 39.87109375 C62.36032642 43.92804329 64.4368784 47.58582699 66.58203125 51.36328125 C68.76999268 55.43180457 70.37901707 59.68229091 72 64 C72.66344326 65.66795242 73.3292777 67.33496132 74 69 C74.29132813 68.20078125 74.58265625 67.4015625 74.8828125 66.578125 C77.43040388 59.75250281 80.26575994 53.24289926 83.59765625 46.765625 C84.81321697 44.3683632 85.93147916 41.96513522 87 39.5 C93.41323209 24.93167032 100.14103083 11.95688999 115.28515625 4.94140625 C117.5057734 4.16358572 119.71679341 3.5670215 122 3 C123.35351562 2.58621094 123.35351562 2.58621094 124.734375 2.1640625 C132.48977434 -0.07228281 139.9469586 -0.59737254 148 0 C148.33 0.33 148.66 0.66 149 1 C148.87588339 16.35943067 142.69042546 28.38304825 132 39 C123.57507953 47.02563514 110.33457908 50.22224665 99 50 C99.61663909 45.99184592 101.73592503 43.29319995 104 40 C104.4640625 38.9790625 104.4640625 38.9790625 104.9375 37.9375 C106.46615031 35.1499612 108.76082449 33.23917551 111 31 C111.70447442 29.6862504 112.37967903 28.35551618 113 27 C91.07462852 45.12619437 82.03970626 69.33122535 79 97 C78.46186833 105.00843656 78.443107 113.03911653 78.375 121.0625 C78.3384418 124.21251814 78.29799128 127.36241421 78.25234985 130.51231384 C78.22519974 132.45312695 78.20381543 134.39403118 78.18881226 136.3349762 C78.17341904 137.62914711 78.17341904 137.62914711 78.15771484 138.94946289 C78.14797134 140.09047203 78.14797134 140.09047203 78.13803101 141.25453186 C78 143 78 143 77 144 C74 144.125 74 144.125 71 144 C69.12977019 142.12977019 69.75818409 138.97512115 69.68359375 136.47265625 C69.6524221 135.47823769 69.6524221 135.47823769 69.62062073 134.46372986 C69.57726555 133.05230333 69.53623514 131.64080382 69.49731445 130.22924805 C69.43860495 128.10252637 69.37331792 125.97609457 69.30664062 123.84960938 C69.13175717 118.08100172 68.97382729 112.31893882 69.0234375 106.546875 C69.04364832 102.05020346 68.70526938 97.65214291 68.1875 93.1875 C68.09839355 92.41269287 68.00928711 91.63788574 67.91748047 90.83959961 C65.29713434 69.38246748 57.4991064 46.80689036 41 32 C40.4328125 31.48695313 39.865625 30.97390625 39.28125 30.4453125 C36.30384489 27.80854272 33.63261232 25.67720175 30 24 C30.721875 24.515625 31.44375 25.03125 32.1875 25.5625 C35.0222484 28.01928195 36.84540051 30.40652129 38.88671875 33.51171875 C39.94616763 35.15989263 39.94616763 35.15989263 42 36 C43.03435556 37.64556566 44.02763513 39.3170608 45 41 C45.721875 42.03125 46.44375 43.0625 47.1875 44.125 C49 47 49 47 49 50 C36.42877041 50.44840055 24.40067542 45.91670521 14.875 37.875 C7.69358215 31.14586806 3.51554491 23.44984305 1 14 C0.7834375 13.21238281 0.566875 12.42476562 0.34375 11.61328125 C-0.74200928 7.29167357 -1.07628496 4.39739283 0 0 Z M118 22 C117.01 23.485 117.01 23.485 116 25 C117.32 24.34 118.64 23.68 120 23 C119.34 22.67 118.68 22.34 118 22 Z " fill="#0A9D67" transform="translate(176,228)"/>
<path d="M0 0 C0.87674593 12.15267269 -2.20502892 24.39269814 -10 34 C-11.32841368 34.67641652 -12.66113474 35.34451388 -14 36 C-14.33 36.99 -14.66 37.98 -15 39 C-24.34171559 47.12130144 -35.82226807 50.76249104 -48 51 C-45.37907494 41.04048476 -38.96328658 33.3167529 -32 26 C-46.56363054 35.76199758 -55.5249223 50.18455653 -60 67 C-60.28617188 67.99 -60.28617188 67.99 -60.578125 69 C-62.75280316 76.9531087 -63.13778952 85.02791353 -63.24609375 93.234375 C-63.27899226 94.95964125 -63.31220449 96.68490155 -63.34570312 98.41015625 C-63.3932604 101.09159798 -63.4378344 103.77300893 -63.47680664 106.45458984 C-63.51654735 109.06891005 -63.56803172 111.68279593 -63.62109375 114.296875 C-63.6295079 115.09591248 -63.63792206 115.89494995 -63.64659119 116.71820068 C-63.73953442 120.91456675 -64.0862327 124.16576553 -66 128 C-67.875 127.75 -67.875 127.75 -70 127 C-71.84019935 124.09594799 -72.24775743 121.82413703 -72.2734375 118.421875 C-72.29116211 117.52001465 -72.30888672 116.6181543 -72.32714844 115.68896484 C-72.35083496 114.23417725 -72.35083496 114.23417725 -72.375 112.75 C-72.89872561 95.83150306 -74.64557424 78.43999326 -82 63 C-82.44085938 61.99195313 -82.88171875 60.98390625 -83.3359375 59.9453125 C-88.2004099 49.38322601 -95.11641646 41.37148422 -104 34 C-104 33.34 -104 32.68 -104 32 C-104.99 32.495 -104.99 32.495 -106 33 C-103.45395403 36.52381687 -103.45395403 36.52381687 -100 39 C-100 39.99 -100 40.98 -100 42 C-99.34 42 -98.68 42 -98 42 C-96.2734375 44.51953125 -96.2734375 44.51953125 -94.375 47.8125 C-93.74335938 48.89144531 -93.11171875 49.97039062 -92.4609375 51.08203125 C-91 54 -91 54 -91 57 C-96.88972752 57.26205684 -101.33693802 56.64346323 -106.8125 54.5 C-107.504646 54.23155273 -108.19679199 53.96310547 -108.90991211 53.68652344 C-121.16198109 48.69194088 -128.69092083 41.17239152 -134.8125 29.5625 C-137.27278784 22.18163648 -138.43172728 14.7710911 -138 7 C-137 6 -137 6 -133.89453125 5.98046875 C-119.68011666 6.58062899 -103.89194877 8.96030804 -93.49609375 19.55078125 C-91.19680914 22.28946786 -89.075162 25.08889217 -87 28 C-86.50757813 28.63550781 -86.01515625 29.27101562 -85.5078125 29.92578125 C-82.05328185 34.76426983 -80.59376236 40.2042093 -78.953125 45.84521484 C-77.28809595 51.44374412 -74.99428195 56.48748862 -72.234375 61.64453125 C-71 64 -71 64 -70 67 C-69.86464844 66.45214844 -69.72929687 65.90429688 -69.58984375 65.33984375 C-67.9285845 59.22203275 -65.52009213 53.64456023 -62.75732422 47.96166992 C-60.84448384 43.97301398 -59.22520771 39.97939383 -57.77514648 35.80102539 C-53.22480766 22.7049663 -45.73276532 12.11909038 -33.4375 5.25 C-22.90498988 0.35529054 -11.45708149 -0.52165464 0 0 Z " fill="#099C66" transform="translate(318,154)"/>
<path d="M0 0 C2.97 0 5.94 0 9 0 C9 43.23 9 86.46 9 131 C2.4 131 -4.2 131 -11 131 C-15.48895537 131.3253938 -19.86151891 131.68858631 -24.3125 132.25 C-25.4164209 132.38494873 -26.5203418 132.51989746 -27.65771484 132.65893555 C-36.0450972 133.74664531 -43.96040917 135.31398286 -52 138 C-53.21558594 138.38542969 -54.43117188 138.77085937 -55.68359375 139.16796875 C-68.24262498 143.37557916 -81.65713151 149.56786289 -92.16503906 157.66918945 C-94 159 -94 159 -96 159 C-94.70941367 154.25397284 -92.95263081 151.3540121 -89.625 147.75 C-88.85414063 146.89921875 -88.08328125 146.0484375 -87.2890625 145.171875 C-85.22515282 143.21362622 -83.60654755 142.07118393 -81 141 C-81 140.34 -81 139.68 -81 139 C-79.37497189 137.93366917 -77.69666839 136.94820575 -76 136 C-75.03707031 135.39542969 -74.07414062 134.79085937 -73.08203125 134.16796875 C-52.59514526 121.75834964 -27.84914971 116.79513954 -4 118 C-2.02 118.495 -2.02 118.495 0 119 C0 79.73 0 40.46 0 0 Z " fill="#EBEBEA" transform="translate(359,200)"/>
<path d="M0 0 C2.97 0 5.94 0 9 0 C9 39.27 9 78.54 9 119 C10.98 118.505 10.98 118.505 13 118 C38.34517192 116.64239276 64.95838126 122.51330943 86 137 C86.928125 137.556875 87.85625 138.11375 88.8125 138.6875 C95.60497712 143.61537556 101.41360131 149.35941149 105 157 C105 157.66 105 158.32 105 159 C100.69235185 157.43358249 96.93828536 155.31663844 93 153 C93 152.34 93 151.68 93 151 C92.0925 150.79375 91.185 150.5875 90.25 150.375 C86.7778248 149.3908705 83.75969552 147.91620558 80.5625 146.25 C75.79468144 143.80940201 71.00266285 141.70672963 66 139.8125 C65.38455322 139.57499023 64.76910645 139.33748047 64.13500977 139.09277344 C54.19334607 135.41019888 44.00652168 133.49351564 33.5 132.3125 C31.97246094 132.11817383 31.97246094 132.11817383 30.4140625 131.91992188 C20.12205991 130.73093136 10.5756917 131 0 131 C0 87.77 0 44.54 0 0 Z " fill="#EEEEED" transform="translate(132,200)"/>
<path d="M0 0 C8.70032438 3.67044935 14.10010744 13.38524864 17.6875 21.6875 C21.77573383 33.36816808 20.47549784 46.41175193 15.1875 57.4375 C12.84354434 61.75380859 10.52636557 65.56894161 7 69 C6.01 69 5.02 69 4 69 C3.94465088 68.44538086 3.88930176 67.89076172 3.83227539 67.31933594 C3.57871893 64.7959083 3.32065495 62.27296117 3.0625 59.75 C2.97548828 58.87730469 2.88847656 58.00460938 2.79882812 57.10546875 C2.71181641 56.26113281 2.62480469 55.41679687 2.53515625 54.546875 C2.456604 53.77182617 2.37805176 52.99677734 2.29711914 52.19824219 C2.00997086 50.07376962 1.56205228 48.06703475 1 46 C0.17846037 60.34760289 -0.13523642 74.62957006 0 89 C-1.485 89.495 -1.485 89.495 -3 90 C-6.71163609 77.18695838 -6.71163609 77.18695838 -8.05078125 71.90625 C-8.22061523 71.24246338 -8.39044922 70.57867676 -8.56542969 69.89477539 C-9.04057576 68.02382938 -9.50683306 66.15063271 -9.97265625 64.27734375 C-10.84195803 61.04920099 -10.84195803 61.04920099 -12.43359375 58.62890625 C-16.61285892 51.6148278 -17.53112386 44.61268882 -17.4375 36.5625 C-17.42847656 35.63453613 -17.41945312 34.70657227 -17.41015625 33.75048828 C-17.0775222 20.6460926 -11.19242429 11.08349202 -2 1.8125 C-1.34 1.214375 -0.68 0.61625 0 0 Z " fill="#089A64" transform="translate(249,110)"/>
<path d="M0 0 C-0.37799907 25.78538399 -1.39604047 51.48514624 -2.98364258 77.2253418 C-3.05008972 78.31861282 -3.11653687 79.41188385 -3.18499756 80.5382843 C-3.30917283 82.56998842 -3.43659553 84.60149826 -3.56817627 86.63273621 C-3.93103875 92.54255513 -4.05160321 98.41523605 -4.00390625 104.33624268 C-3.9984842 108.03365398 -4.19813072 111.68503041 -4.4375 115.375 C-4.51871094 116.68210937 -4.59992188 117.98921875 -4.68359375 119.3359375 C-4.96329837 122.57498601 -5.46552198 125.79313187 -6 129 C-12.27 129 -18.54 129 -25 129 C-25 128.67 -25 128.34 -25 128 C-19.06 128 -13.12 128 -7 128 C-7 89.39 -7 50.78 -7 11 C-26.33908864 14.11772127 -26.33908864 14.11772127 -43.6796875 20.1796875 C-46.2798219 21.09892693 -47.45544742 20.95864539 -50 20 C-49.48050781 19.49210937 -48.96101563 18.98421875 -48.42578125 18.4609375 C-43.7062721 13.82445407 -43.7062721 13.82445407 -39.5625 8.6875 C-30.79629863 -0.50632094 -11.84648447 -0.23388547 0 0 Z " fill="#ECB750" transform="translate(355,182)"/>
<path d="M0 0 C7.29314422 -0.18839024 14.19889385 0.17721546 21.375 1.5 C22.23738281 1.62375 23.09976563 1.7475 23.98828125 1.875 C27.56409467 2.53616735 30.11378476 3.04683096 32.64160156 5.765625 C34.90251357 9.285172 36.6394692 13.04209221 38 17 C31.01072759 15.80944258 24.12465027 14.37237294 17.23828125 12.68359375 C13.5320632 11.90121962 9.7586461 11.46983076 6 11 C6 49.61 6 88.22 6 128 C10.62 128 15.24 128 20 128 C20 128.33 20 128.66 20 129 C15.05 129 10.1 129 5 129 C3.8751567 121.12609687 3.8751567 121.12609687 3.73461914 117.61743164 C3.70103806 116.82455246 3.66745697 116.03167328 3.63285828 115.21476746 C3.60061661 114.37174576 3.56837494 113.52872406 3.53515625 112.66015625 C3.49755692 111.75795853 3.45995758 110.8557608 3.42121887 109.92622375 C3.29849763 106.97176926 3.18042958 104.01714932 3.0625 101.0625 C2.89159373 96.87881044 2.71799558 92.69523785 2.54296875 88.51171875 C2.49895935 87.45607727 2.45494995 86.40043579 2.40960693 85.31280518 C2.12687957 78.64968854 1.79891526 71.99066859 1.42578125 65.33203125 C0.21279263 43.52854443 -0.25958855 21.83738732 0 0 Z " fill="#A17B30" transform="translate(146,182)"/>
<path d="M0 0 C2.97 0 5.94 0 9 0 C9 39.27 9 78.54 9 119 C10.98 118.505 10.98 118.505 13 118 C38.34517192 116.64239276 64.95838126 122.51330943 86 137 C86.928125 137.556875 87.85625 138.11375 88.8125 138.6875 C95.60497712 143.61537556 101.41360131 149.35941149 105 157 C105 157.66 105 158.32 105 159 C100.69235185 157.43358249 96.93828536 155.31663844 93 153 C93 152.34 93 151.68 93 151 C91.865625 150.71125 90.73125 150.4225 89.5625 150.125 C87.7990625 149.568125 87.7990625 149.568125 86 149 C85.67 148.34 85.34 147.68 85 147 C86.98 147.66 88.96 148.32 91 149 C89.52245022 144.71033936 86.47899527 143.1736182 82.6875 141.125 C82.06447998 140.78057861 81.44145996 140.43615723 80.79956055 140.08129883 C71.16252831 134.82506785 61.69090463 130.57758057 51 128 C49.845 127.649375 48.69 127.29875 47.5 126.9375 C33.93470079 123.30393771 22.55453276 123.58218131 8 123 C8 82.74 8 42.48 8 1 C5.69 1 3.38 1 1 1 C1 43.57 1 86.14 1 130 C1.99 129.67 2.98 129.34 4 129 C5.46000289 128.9078259 6.92381071 128.86932692 8.38671875 128.8671875 C9.24330078 128.86589844 10.09988281 128.86460937 10.98242188 128.86328125 C11.87509766 128.86714844 12.76777344 128.87101563 13.6875 128.875 C14.56083984 128.87113281 15.43417969 128.86726562 16.33398438 128.86328125 C21.64669592 128.87121659 26.74318643 129.22891908 32 130 C32 130.33 32 130.66 32 131 C21.44 131 10.88 131 0 131 C0 87.77 0 44.54 0 0 Z " fill="#574E42" transform="translate(132,200)"/>
<path d="M0 0 C2.97 0 5.94 0 9 0 C9 43.23 9 86.46 9 131 C5.37 131 1.74 131 -2 131 C-2 130.67 -2 130.34 -2 130 C1.3 130 4.6 130 8 130 C8 87.43 8 44.86 8 1 C5.69 1 3.38 1 1 1 C1 41.26 1 81.52 1 123 C-10.385 123.495 -10.385 123.495 -22 124 C-26.14562484 124.5424182 -29.9669917 125.08892885 -34 126 C-34.9178125 126.19335938 -35.835625 126.38671875 -36.78125 126.5859375 C-53.26057441 130.35137453 -68.76230411 136.30363828 -82 147 C-81.15695312 146.69964844 -80.31390625 146.39929688 -79.4453125 146.08984375 C-77.80175781 145.51943359 -77.80175781 145.51943359 -76.125 144.9375 C-75.03445313 144.55464844 -73.94390625 144.17179688 -72.8203125 143.77734375 C-70 143 -70 143 -68 144 C-68.64549805 144.34780518 -69.29099609 144.69561035 -69.95605469 145.05395508 C-72.8891842 146.63680086 -75.81960736 148.22459349 -78.75 149.8125 C-80.27367187 150.63331055 -80.27367187 150.63331055 -81.828125 151.47070312 C-83.29765625 152.26831055 -83.29765625 152.26831055 -84.796875 153.08203125 C-86.14797363 153.81256714 -86.14797363 153.81256714 -87.52636719 154.55786133 C-90.01969714 155.9426237 -90.01969714 155.9426237 -92.20019531 157.68237305 C-94 159 -94 159 -96 159 C-94.70941367 154.25397284 -92.95263081 151.3540121 -89.625 147.75 C-88.85414063 146.89921875 -88.08328125 146.0484375 -87.2890625 145.171875 C-85.22515282 143.21362622 -83.60654755 142.07118393 -81 141 C-81 140.34 -81 139.68 -81 139 C-79.37497189 137.93366917 -77.69666839 136.94820575 -76 136 C-75.03707031 135.39542969 -74.07414062 134.79085937 -73.08203125 134.16796875 C-52.59514526 121.75834964 -27.84914971 116.79513954 -4 118 C-2.02 118.495 -2.02 118.495 0 119 C0 79.73 0 40.46 0 0 Z " fill="#514736" transform="translate(359,200)"/>
<path d="M0 0 C0.66 0.66 1.32 1.32 2 2 C1.67 2.99 1.34 3.98 1 5 C0.77820215 6.89212737 0.59385985 8.78884472 0.4375 10.6875 C0.35371094 11.68136719 0.26992188 12.67523438 0.18359375 13.69921875 C0.09271484 14.83810547 0.09271484 14.83810547 0 16 C-0.66 16 -1.32 16 -2 16 C-2.2165625 17.7015625 -2.2165625 17.7015625 -2.4375 19.4375 C-3 23 -3 23 -4 24 C-4.12350658 25.90160112 -4.17793443 27.8077239 -4.20532227 29.71313477 C-4.22526749 30.9343251 -4.24521271 32.15551544 -4.26576233 33.41371155 C-4.28274791 34.75627513 -4.29962667 36.09884007 -4.31640625 37.44140625 C-4.33696947 38.80761861 -4.35796577 40.17382451 -4.37937927 41.5400238 C-4.43466535 45.14194524 -4.48404563 48.74392471 -4.53222656 52.34594727 C-4.58239403 56.01909572 -4.63810485 59.69215955 -4.69335938 63.36523438 C-4.80102082 70.57675132 -4.90244787 77.78833847 -5 85 C-6.65614657 85.38218767 -8.32457024 85.71395102 -10 86 C-12.15846654 83.84153346 -11.21154847 78.84181727 -11.24609375 75.83984375 C-11.27910201 73.91080395 -11.31231219 71.98176759 -11.34570312 70.05273438 C-11.39260289 67.01883013 -11.43687574 63.98493189 -11.47680664 60.95092773 C-11.69019432 45.49629294 -12.31565723 30.76480009 -16.40234375 15.7734375 C-17.32255339 11.50318361 -17.25940929 7.34270369 -17 3 C-16.34 2.67 -15.68 2.34 -15 2 C-13.5 3.375 -13.5 3.375 -12 5 C-12 5.66 -12 6.32 -12 7 C-11.34 7 -10.68 7 -10 7 C-8.68 9.97 -7.36 12.94 -6 16 C-4.50790941 13.01581883 -3.68109021 11.11355525 -3 8 C-2.31698293 5.09446706 -1.51635261 2.59946161 0 0 Z " fill="#109E6A" transform="translate(258,285)"/>
<path d="M0 0 C1 3 1 3 0.4375 4.9375 C-0.1280306 7.60357285 0.61738438 8.72275075 2 11 C1.195625 11.5775 0.39125 12.155 -0.4375 12.75 C-2.97866739 14.98126893 -3.65120368 15.74456771 -4 19 C-4.66 19 -5.32 19 -6 19 C-6 20.65 -6 22.3 -6 24 C-5.01 24 -4.02 24 -3 24 C-3 23.01 -3 22.02 -3 21 C-2.34 21 -1.68 21 -1 21 C-1 19.68 -1 18.36 -1 17 C-0.01 17 0.98 17 2 17 C1.95875 16.236875 1.9175 15.47375 1.875 14.6875 C2 12 2 12 4 9 C5.32 9 6.64 9 8 9 C7.3598083 12.59172487 5.83956818 14.99295846 3.8125 18 C-11.08960653 41.08605028 -13.3973451 66.24348844 -13.625 93.0625 C-13.6615582 96.21251814 -13.70200872 99.36241421 -13.74765015 102.51231384 C-13.77480026 104.45312695 -13.79618457 106.39403118 -13.81118774 108.3349762 C-13.82144989 109.19775681 -13.83171204 110.06053741 -13.84228516 110.94946289 C-13.84878082 111.71013565 -13.85527649 112.47080841 -13.86196899 113.25453186 C-14 115 -14 115 -15 116 C-18 116.125 -18 116.125 -21 116 C-22.87022981 114.12977019 -22.24181591 110.97512115 -22.31640625 108.47265625 C-22.33718735 107.80971054 -22.35796844 107.14676483 -22.37937927 106.46372986 C-22.42273445 105.05230333 -22.46376486 103.64080382 -22.50268555 102.22924805 C-22.56139505 100.10252637 -22.62668208 97.97609457 -22.69335938 95.84960938 C-22.86809026 90.0833206 -23.0262188 84.32444311 -22.96875 78.5546875 C-22.94637783 74.00266497 -23.37327103 69.57533664 -23.9375 65.0625 C-24.12194287 63.50400651 -24.30553785 61.94541243 -24.48828125 60.38671875 C-24.62097412 59.26789307 -24.62097412 59.26789307 -24.75634766 58.12646484 C-25.25675477 53.75918435 -25.63337282 49.38022996 -26 45 C-24.00262952 47.99605572 -23.53633525 49.53782644 -22.9375 53 C-22.78152344 53.86625 -22.62554687 54.7325 -22.46484375 55.625 C-21.31654265 63.96224498 -20.83876273 72.29040653 -20.68359375 80.69921875 C-20.66281265 81.6602803 -20.64203156 82.62134186 -20.62062073 83.61152649 C-20.55601347 86.63678886 -20.49666006 89.66212672 -20.4375 92.6875 C-20.39422997 94.7571688 -20.35061321 96.82683038 -20.30664062 98.89648438 C-20.20042531 103.93091517 -20.09891681 108.96542073 -20 114 C-18.68 114 -17.36 114 -16 114 C-15.99413376 113.25355225 -15.98826752 112.50710449 -15.98222351 111.73803711 C-15.92413191 104.67656863 -15.85196205 97.61541358 -15.76428509 90.55426025 C-15.71970595 86.92470555 -15.68042326 83.29525986 -15.65356445 79.66552734 C-15.62740597 76.15749649 -15.58691734 72.64988802 -15.53681374 69.14212036 C-15.51220113 67.16377354 -15.50213277 65.18526287 -15.49235535 63.20678711 C-15.38266384 56.44235651 -14.89505171 51.14735077 -12 45 C-11.34 45 -10.68 45 -10 45 C-10 40.71 -10 36.42 -10 32 C-11.9497679 33.9497679 -12.36797559 37.0922787 -13.18359375 39.67578125 C-13.96422353 41.89814832 -14.90045893 43.91991581 -16 46 C-16.33 46 -16.66 46 -17 46 C-18.01187775 35.47647142 -12.58142822 26.92102999 -7.55859375 18.0234375 C-4.56792922 12.22199804 -2.31924894 6.09419669 0 0 Z " fill="#126A49" transform="translate(268,256)"/>
<path d="M0 0 C4.62 0 9.24 0 14 0 C14 2.64 14 5.28 14 8 C12.35 8.66 10.7 9.32 9 10 C9 50.26 9 90.52 9 132 C10.32 131.67 11.64 131.34 13 131 C15.30711947 130.90637981 17.61676402 130.86929936 19.92578125 130.8671875 C20.92450508 130.86575241 20.92450508 130.86575241 21.94340515 130.86428833 C23.34955948 130.86360943 24.75571698 130.86544346 26.16186523 130.86962891 C28.29483236 130.87495588 30.42758648 130.86968728 32.56054688 130.86328125 C33.93229213 130.86394258 35.30403724 130.86522487 36.67578125 130.8671875 C38.5307019 130.86887939 38.5307019 130.86887939 40.4230957 130.87060547 C44.01322572 131.00047844 47.45585317 131.42717986 51 132 C51 132.33 51 132.66 51 133 C36.48 133 21.96 133 7 133 C7 91.75 7 50.5 7 8 C8.65 7.67 10.3 7.34 12 7 C12 5.02 12 3.04 12 1 C8.37 1 4.74 1 1 1 C1 47.2 1 93.4 1 141 C2.98 141 4.96 141 7 141 C7 141.33 7 141.66 7 142 C4.69 142 2.38 142 0 142 C0 95.14 0 48.28 0 0 Z " fill="#585858" transform="translate(114,208)"/>
<path d="M0 0 C0.625 1.8125 0.625 1.8125 1 4 C0.01 5.485 0.01 5.485 -1 7 C-0.01 6.67 0.98 6.34 2 6 C2.66 6.66 3.32 7.32 4 8 C3.01 8.33 2.02 8.66 1 9 C1 9.66 1 10.32 1 11 C0.01 11.495 0.01 11.495 -1 12 C-1.144375 12.639375 -1.28875 13.27875 -1.4375 13.9375 C-2 16 -2 16 -5 18 C-6.32 18 -7.64 18 -9 18 C-9.33 19.32 -9.66 20.64 -10 22 C-10.969375 21.979375 -11.93875 21.95875 -12.9375 21.9375 C-15.87465895 21.64381501 -15.87465895 21.64381501 -17 23 C-17.66 23 -18.32 23 -19 23 C-19 24.32 -19 25.64 -19 27 C-18.34 27.33 -17.68 27.66 -17 28 C-17.99 28 -18.98 28 -20 28 C-20 29.32 -20 30.64 -20 32 C-20.66 32 -21.32 32 -22 32 C-21.67 33.32 -21.34 34.64 -21 36 C-22.485 36.495 -22.485 36.495 -24 37 C-24 37.66 -24 38.32 -24 39 C-24.66 39 -25.32 39 -26 39 C-26 40.98 -26 42.96 -26 45 C-27.32 44.67 -28.64 44.34 -30 44 C-30.25 38.375 -30.25 38.375 -28 35 C-27.5012783 33.40792688 -27.04653397 31.80172714 -26.625 30.1875 C-25.35557404 25.82345354 -23.77664978 22.64931114 -21 19 C-20.53335937 18.32839844 -20.06671875 17.65679687 -19.5859375 16.96484375 C-16.70334326 12.89225547 -14.37209565 10.49834037 -10 8 C-9.855625 7.360625 -9.71125 6.72125 -9.5625 6.0625 C-9 4 -9 4 -6.125 1.75 C-3 0 -3 0 0 0 Z " fill="#08A269" transform="translate(287,163)"/>
<path d="M0 0 C4.59582445 5.77793642 4.21715767 12.06755783 3.8203125 19.25390625 C2.59857942 29.61370411 -1.42665239 39.63133747 -9 47 C-9.99 47 -10.98 47 -12 47 C-12.08302368 46.16807129 -12.08302368 46.16807129 -12.16772461 45.31933594 C-12.42128107 42.7959083 -12.67934505 40.27296117 -12.9375 37.75 C-13.02451172 36.87730469 -13.11152344 36.00460938 -13.20117188 35.10546875 C-13.28818359 34.26113281 -13.37519531 33.41679687 -13.46484375 32.546875 C-13.58267212 31.38430176 -13.58267212 31.38430176 -13.70288086 30.19824219 C-13.99002914 28.07376962 -14.43794772 26.06703475 -15 24 C-15.82153963 38.34760289 -16.13523642 52.62957006 -16 67 C-17.485 67.495 -17.485 67.495 -19 68 C-19.495 65.03 -19.495 65.03 -20 62 C-19.67 62 -19.34 62 -19 62 C-19.01047363 61.09572266 -19.02094727 60.19144531 -19.03173828 59.25976562 C-19.2172379 40.72858806 -19.03614882 22.44989108 -17 4 C-16.01 4 -15.02 4 -14 4 C-11.59662635 16.04709936 -9.7978794 27.67064332 -10 40 C-8.68 40 -7.36 40 -6 40 C-5.87625 39.44183594 -5.7525 38.88367188 -5.625 38.30859375 C-4.70775335 34.92051395 -3.29602137 31.76663906 -1.9375 28.53515625 C-0.37876103 24.32006629 0.12513737 20.39739068 0.09765625 15.91796875 C0.09282227 14.52094727 0.09282227 14.52094727 0.08789062 13.09570312 C0.07951172 12.13599609 0.07113281 11.17628906 0.0625 10.1875 C0.05798828 9.20845703 0.05347656 8.22941406 0.04882812 7.22070312 C0.03708684 4.81373889 0.02066419 2.40690143 0 0 Z " fill="#167753" transform="translate(265,132)"/>
<path d="M0 0 C0.33 0 0.66 0 1 0 C1.50675112 22.31524031 0.45640156 44.44740319 -0.93286133 66.7175293 C-1.0017305 67.8350206 -1.07059967 68.9525119 -1.14155579 70.10386658 C-1.27145142 72.19530287 -1.40485133 74.2865261 -1.54264832 76.37745667 C-1.91874899 82.37737415 -2.05572413 88.33678812 -2.00514221 94.34860229 C-1.99797922 98.04194298 -2.1983944 101.68909515 -2.4375 105.375 C-2.51871094 106.68210937 -2.59992188 107.98921875 -2.68359375 109.3359375 C-2.96329837 112.57498601 -3.46552198 115.79313187 -4 119 C-10.27 119 -16.54 119 -23 119 C-23 118.67 -23 118.34 -23 118 C-17.06 118 -11.12 118 -5 118 C-4.14618375 92.80712627 -3.8671691 67.64950712 -3.93133545 42.44311523 C-3.94183695 37.85531099 -3.94618851 33.26750047 -3.95117188 28.6796875 C-3.96168107 19.78644222 -3.97858797 10.89322571 -4 2 C-3.34 2 -2.68 2 -2 2 C-1.67 9.26 -1.34 16.52 -1 24 C-0.67 16.08 -0.34 8.16 0 0 Z " fill="#9C762E" transform="translate(353,192)"/>
<path d="M0 0 C-0.78503906 0.67804688 -1.57007813 1.35609375 -2.37890625 2.0546875 C-19.29493384 16.91718426 -28.00003285 35.56240122 -30 58 C-30.15234837 61.07786283 -30.20543057 64.15323191 -30.24609375 67.234375 C-30.27899226 68.95964125 -30.31220449 70.68490155 -30.34570312 72.41015625 C-30.3932604 75.09159798 -30.4378344 77.77300893 -30.47680664 80.45458984 C-30.51654735 83.06891005 -30.56803172 85.68279593 -30.62109375 88.296875 C-30.63371498 89.49543121 -30.63371498 89.49543121 -30.64659119 90.71820068 C-30.73953442 94.91456675 -31.0862327 98.16576553 -33 102 C-33.99 101.67 -34.98 101.34 -36 101 C-35.34 101 -34.68 101 -34 101 C-32.86795425 96.46390454 -32.84754358 91.99622161 -32.82421875 87.3515625 C-32.80383002 85.61578981 -32.78221786 83.88003116 -32.75952148 82.14428711 C-32.74831268 81.24144989 -32.73710388 80.33861267 -32.72555542 79.40841675 C-32.50432368 63.22727541 -31.7010398 47.81979339 -28 32 C-31.32635882 33.52572656 -32.95563002 34.93344504 -35 38 C-34.47417217 32.44639371 -33.00171835 28.18019745 -30.5625 23.1875 C-30.24990234 22.52041016 -29.93730469 21.85332031 -29.61523438 21.16601562 C-28.29777412 18.40575534 -27.17795841 16.17795841 -25 14 C-25.875 18.75 -25.875 18.75 -27 21 C-27.039992 22.99960012 -27.04346799 25.00047242 -27 27 C-26.01 27.33 -25.02 27.66 -24 28 C-24 26.02 -24 24.04 -24 22 C-23.34 22 -22.68 22 -22 22 C-22 21.34 -22 20.68 -22 20 C-21.34 19.67 -20.68 19.34 -20 19 C-20 17.68 -20 16.36 -20 15 C-19.34 15 -18.68 15 -18 15 C-17.95101563 14.38511719 -17.90203125 13.77023438 -17.8515625 13.13671875 C-17.77679688 12.32847656 -17.70203125 11.52023438 -17.625 10.6875 C-17.55539062 9.88699219 -17.48578125 9.08648437 -17.4140625 8.26171875 C-17 6 -17 6 -15 3 C-14.67 3.33 -14.34 3.66 -14 4 C-12.00041636 4.04080783 -9.99954746 4.04254356 -8 4 C-7.67 3.01 -7.34 2.02 -7 1 C-2.55696203 -1.27848101 -2.55696203 -1.27848101 0 0 Z " fill="#106344" transform="translate(285,180)"/>
<path d="M0 0 C6.67959493 -0.2745039 11.06818762 -0.09485864 17 3 C15.68 4.65 14.36 6.3 13 8 C16.96 8 20.92 8 25 8 C25 8.66 25 9.32 25 10 C26.32 10 27.64 10 29 10 C29.33 10.99 29.66 11.98 30 13 C28.7934375 12.72285156 27.586875 12.44570312 26.34375 12.16015625 C24.72921237 11.79406923 23.11462643 11.42819517 21.5 11.0625 C20.70851562 10.88009766 19.91703125 10.69769531 19.1015625 10.50976562 C18.31523437 10.33251953 17.52890625 10.15527344 16.71875 9.97265625 C16.00654297 9.81031494 15.29433594 9.64797363 14.56054688 9.48071289 C11.0669645 8.82483344 7.52716692 8.44089587 4 8 C4 43.31 4 78.62 4 115 C3.67 115 3.34 115 3 115 C2.67 81.34 2.34 47.68 2 13 C1.67 13 1.34 13 1 13 C0.67 8.71 0.34 4.42 0 0 Z " fill="#ECB951" transform="translate(148,185)"/>
<path d="M0 0 C5.22116151 4.86108141 7.40286614 9.78106986 9.3125 16.5625 C11.20088364 22.98596074 13.63624073 28.75132124 16.86328125 34.64453125 C18 37 18 37 18 40 C17.01 40 16.02 40 15 40 C15.4916384 50.24502097 15.4916384 50.24502097 16.5625 60.4375 C17.07988813 64.65051762 17.08827966 68.76257612 17 73 C16.67 73 16.34 73 16 73 C15.85751831 72.01157104 15.85751831 72.01157104 15.7121582 71.00317383 C13.38137676 54.34852359 13.38137676 54.34852359 8.05078125 38.48828125 C6.99564152 35.98967899 6.43775554 33.66982776 6 31 C9 34.75 9 34.75 9 37 C10.32 37.33 11.64 37.66 13 38 C12.38112534 35.89402362 11.75468203 33.79027029 11.125 31.6875 C10.60292969 29.92986328 10.60292969 29.92986328 10.0703125 28.13671875 C9.11234547 24.89088275 9.11234547 24.89088275 7 22 C6.46083854 19.3397977 6.26629902 16.70737337 6 14 C5.34 14 4.68 14 4 14 C3.79503906 13.24074219 3.59007812 12.48148438 3.37890625 11.69921875 C3.10949219 10.70535156 2.84007812 9.71148437 2.5625 8.6875 C2.29566406 7.70136719 2.02882812 6.71523437 1.75390625 5.69921875 C1.21920575 3.78482474 0.62855462 1.88566385 0 0 Z " fill="#126B4A" transform="translate(229,181)"/>
<path d="M0 0 C0.33 0.66 0.66 1.32 1 2 C0.00664799 3.67063747 -0.99431758 5.33675599 -2 7 C-2.70670728 9.69254991 -2.70670728 9.69254991 -3 12 C-3.66 12 -4.32 12 -5 12 C-5.309375 12.61875 -5.61875 13.2375 -5.9375 13.875 C-6.625 15.25 -7.3125 16.625 -8 18 C-6.7315625 17.58427734 -6.7315625 17.58427734 -5.4375 17.16015625 C0.73692063 15.18855148 6.53131828 13.50734759 13 13 C12.67 12.01 12.34 11.02 12 10 C14 8 14 8 16.625 7.875 C17.40875 7.91625 18.1925 7.9575 19 8 C18.505 6.515 18.505 6.515 18 5 C17.01 5.495 17.01 5.495 16 6 C16.33 5.01 16.66 4.02 17 3 C19.475 3.495 19.475 3.495 22 4 C22 2.68 22 1.36 22 0 C23.32 0.33 24.64 0.66 26 1 C23.17883257 7.65312747 17.07236909 12.47299218 10.73046875 15.625 C7.51407633 16.88309995 4.30278814 17.99222618 1 19 C0.22140625 19.24492187 -0.5571875 19.48984375 -1.359375 19.7421875 C-5.68166098 20.96515989 -9.55900892 21.18504129 -14 21 C-13.38336091 16.99184592 -11.26407497 14.29319995 -9 11 C-8.690625 10.319375 -8.38125 9.63875 -8.0625 8.9375 C-6.52111935 6.12674706 -4.31117281 4.19561417 -2 2 C-1.34 1.34 -0.68 0.68 0 0 Z " fill="#147452" transform="translate(289,257)"/>
<path d="M0 0 C0 0.99 0 1.98 0 3 C-0.63389648 3.01981934 -1.26779297 3.03963867 -1.92089844 3.06005859 C-16.48128124 3.53870539 -30.08767006 4.56187372 -44.2109375 8.31640625 C-47.12581816 9.03083778 -50.03514912 9.54084168 -53 10 C-52.82421875 8.1328125 -52.82421875 8.1328125 -52 6 C-36.64698186 -2.227712 -16.7478652 -0.24556987 0 0 Z " fill="#C99B59" transform="translate(360,320)"/>
<path d="M0 0 C1.72985242 0.11512153 3.45888751 0.24255677 5.1875 0.375 C6.15042969 0.44460937 7.11335937 0.51421875 8.10546875 0.5859375 C12.41226803 1.20202485 15.0645586 1.79873903 17.80078125 5.3125 C18.29964844 6.199375 18.79851562 7.08625 19.3125 8 C19.82425781 8.886875 20.33601563 9.77375 20.86328125 10.6875 C22 13 22 13 22 15 C19.03 14.505 19.03 14.505 16 14 C15.67 13.01 15.34 12.02 15 11 C13.68 11 12.36 11 11 11 C11 10.34 11 9.68 11 9 C7.04 9 3.08 9 -1 9 C-0.39816251 6.97954558 0.27306096 4.97888961 1 3 C1.66 2.67 2.32 2.34 3 2 C2.01 1.34 1.02 0.68 0 0 Z " fill="#D29E2E" transform="translate(162,184)"/>
<path d="M0 0 C0.05410687 1.77049689 0.09284119 3.54146849 0.125 5.3125 C0.14820313 6.29863281 0.17140625 7.28476563 0.1953125 8.30078125 C0 11 0 11 -2 14 C-1.505 7.565 -1.505 7.565 -1 1 C-3.6884654 1.28426968 -6.37552857 1.57718844 -9.0625 1.875 C-9.81466797 1.95363281 -10.56683594 2.03226563 -11.34179688 2.11328125 C-16.0914993 2.64787979 -20.44109588 3.55907147 -25 5 C-25 5.66 -25 6.32 -25 7 C-25.7734375 7.13535156 -26.546875 7.27070313 -27.34375 7.41015625 C-34.9894485 8.99039344 -39.66986068 11.27793867 -45 17 C-43.68 16.34 -42.36 15.68 -41 15 C-41 15.99 -41 16.98 -41 18 C-41.9075 18.598125 -42.815 19.19625 -43.75 19.8125 C-47.33430475 22.22501281 -48.79521148 24.32535246 -51 28 C-51.70125 29.010625 -52.4025 30.02125 -53.125 31.0625 C-54.79451901 33.67807978 -55.97112968 36.08486743 -57 39 C-58.49178618 34.52464145 -56.49084438 32.02565311 -54.51171875 27.91015625 C-48.56316574 16.45880744 -40.38262256 7.47197313 -28 3 C-18.64970664 0.42060873 -9.67069872 -0.44031849 0 0 Z " fill="#0C5137" transform="translate(318,154)"/>
<path d="M0 0 C10.11190802 1.8752993 20.07507741 5.21995365 28 12 C28.80078125 14.21875 28.80078125 14.21875 29 16 C22.89968164 14.49487472 17.16974683 12.79083731 11.48046875 10.1171875 C6.42059868 7.83825389 1.19079815 5.95758075 -4 4 C-3.34 3.525625 -2.68 3.05125 -2 2.5625 C-1.34 2.046875 -0.68 1.53125 0 1 C0 0.67 0 0.34 0 0 Z " fill="#CDCDCB" transform="translate(194,333)"/>
<path d="M0 0 C0.66 0.99 1.32 1.98 2 3 C4.56282742 3.72965366 4.56282742 3.72965366 7 4 C-0.58795086 9.05863391 -9.22142621 11.50477285 -18.0625 13.375 C-21.43578286 14.09271976 -24.70066472 15.00252654 -28 16 C-22.00519666 9.22326578 -9.21620656 0 0 0 Z " fill="#CECBC3" transform="translate(303,332)"/>
<path d="M0 0 C3.31367332 2.65875854 4.39509267 6.13998025 5.8125 10 C8.36001631 16.66378753 11.43488403 22.81347524 15 29 C18.07226428 34.45079147 18.07226428 34.45079147 17.6875 37.375 C17.460625 37.91125 17.23375 38.4475 17 39 C16.67 37.68 16.34 36.36 16 35 C14.35 34.67 12.7 34.34 11 34 C10.87882813 33.15695312 10.75765625 32.31390625 10.6328125 31.4453125 C10.46523437 30.34960938 10.29765625 29.25390625 10.125 28.125 C9.96257812 27.03445313 9.80015625 25.94390625 9.6328125 24.8203125 C9.23743487 21.88067286 9.23743487 21.88067286 7 20 C3.03590708 15.04488384 1.77792452 11.33452826 1 5 C0.68033861 3.33065717 0.35268934 1.6626783 0 0 Z M6 30 C9 33.75 9 33.75 9 36 C9.99 35.67 10.98 35.34 12 35 C12.19551338 36.60320974 12.38111983 38.20762986 12.5625 39.8125 C12.66691406 40.70582031 12.77132812 41.59914063 12.87890625 42.51953125 C13 45 13 45 12 48 C11.18243762 45.93950145 10.37115266 43.87651147 9.5625 41.8125 C8.88380859 40.08966797 8.88380859 40.08966797 8.19140625 38.33203125 C7.18906699 35.52876767 6.47987205 32.92887424 6 30 Z " fill="#116E4B" transform="translate(229,253)"/>
<path d="M0 0 C0.95342195 2.64839432 0.96492726 4.23470459 0.54272461 7.06005859 C-0.07717663 11.56026829 -0.19006518 15.94092384 -0.24609375 20.4765625 C-0.2790065 22.29948443 -0.31221854 24.12240098 -0.34570312 25.9453125 C-0.39320716 28.79358548 -0.43773092 31.64183274 -0.47680664 34.49023438 C-0.5165523 37.25672293 -0.56805538 40.02280129 -0.62109375 42.7890625 C-0.6295079 43.63812164 -0.63792206 44.48718079 -0.64659119 45.36196899 C-0.7365624 49.67552369 -1.00532325 53.06850659 -3 57 C-3.99 57 -4.98 57 -6 57 C-8.34894745 53.30995799 -8.23059746 50.1328897 -8.1953125 45.828125 C-8.1924826 45.1457074 -8.18965271 44.46328979 -8.18673706 43.76019287 C-8.17558098 41.58994693 -8.15048557 39.42012029 -8.125 37.25 C-8.11496426 35.77474556 -8.10583944 34.29948463 -8.09765625 32.82421875 C-8.07565687 29.21601058 -8.04115883 25.60804625 -8 22 C-7.34 22.33 -6.68 22.66 -6 23 C-5.97494385 23.84296631 -5.9498877 24.68593262 -5.92407227 25.55444336 C-5.82911845 28.67241674 -5.72987552 31.79021503 -5.62768555 34.90795898 C-5.58428777 36.25914147 -5.5426163 37.61038053 -5.50268555 38.96166992 C-5.44510048 40.90036701 -5.38085702 42.83886276 -5.31640625 44.77734375 C-5.27974854 45.94515381 -5.24309082 47.11296387 -5.20532227 48.31616211 C-5.29923812 50.91779795 -5.29923812 50.91779795 -4 52 C-2.46767472 48.93534944 -2.92051213 45.74440078 -2.97265625 42.38671875 C-2.98532747 40.81185135 -2.9976865 39.23698142 -3.00976562 37.66210938 C-3.03432915 35.19189434 -3.06202882 32.72181389 -3.09594727 30.25170898 C-3.22322205 20.35935148 -3.26313981 10.70050352 -1 1 C-0.67 0.67 -0.34 0.34 0 0 Z " fill="#1A8C62" transform="translate(254,224)"/>
<path d="M0 0 C0.33 0.99 0.66 1.98 1 3 C2.98 3 4.96 3 7 3 C3.50703152 7.12599837 -0.85595704 7.34089582 -6 8 C-8.69559382 8.13413067 -11.29893891 8.1000393 -14 8 C-14 8.66 -14 9.32 -14 10 C-15.98 10 -17.96 10 -20 10 C-19.3125 6.625 -19.3125 6.625 -18 3 C-12.82869017 -0.25053761 -5.95250001 -0.14518293 0 0 Z " fill="#FAB72D" transform="translate(335,187)"/>
<path d="M0 0 C0.495 0.495 0.495 0.495 1 1 C0.91899971 11.02378613 -2.11701269 20.33663541 -7 29 C-7.66 29.33 -8.32 29.66 -9 30 C-9 27.69 -9 25.38 -9 23 C-8.34 22.67 -7.68 22.34 -7 22 C-3.11030555 15.55769357 -1.93934983 9.41591972 -1 2 C-16.28468736 2.80922965 -16.28468736 2.80922965 -30.84375 7.09765625 C-33.20847434 8.08724198 -35.47874111 8.5694329 -38 9 C-34.60326421 5.19057668 -30.78791251 4.38112861 -26 3 C-25.08734375 2.71769531 -24.1746875 2.43539062 -23.234375 2.14453125 C-15.48369252 -0.06254812 -8.0425806 -0.59659656 0 0 Z " fill="#124A37" transform="translate(324,228)"/>
<path d="M0 0 C0.19335938 0.67546875 0.38671875 1.3509375 0.5859375 2.046875 C0.84632813 2.93890625 1.10671875 3.8309375 1.375 4.75 C1.63023437 5.63171875 1.88546875 6.5134375 2.1484375 7.421875 C2.92350609 9.76841292 3.86131567 11.81446072 5 14 C6.37589535 17.66905427 7 20.03231454 7 24 C5.19140625 23.8515625 5.19140625 23.8515625 3 23 C1.40234375 20.5234375 1.40234375 20.5234375 -0.0625 17.375 C-0.57167969 16.29089844 -1.08085937 15.20679688 -1.60546875 14.08984375 C-2.29576172 12.56037109 -2.29576172 12.56037109 -3 11 C-3.34675781 10.25878906 -3.69351563 9.51757812 -4.05078125 8.75390625 C-5.31088998 5.97688939 -6 4.08695166 -6 1 C-3 0 -3 0 0 0 Z " fill="#0CA16A" transform="translate(235,195)"/>
<path d="M0 0 C0.66 0.33 1.32 0.66 2 1 C1.15695312 1.77085937 0.31390625 2.54171875 -0.5546875 3.3359375 C-1.66148032 4.34893432 -2.76824994 5.36195647 -3.875 6.375 C-4.43058594 6.88289062 -4.98617188 7.39078125 -5.55859375 7.9140625 C-9.92883802 11.5665614 -9.92883802 11.5665614 -12.875 16.25 C-14 19 -14 19 -16.0625 22.0625 C-17.70988017 24.5601409 -18.55455115 26.10458245 -19 29 C-17.02 29.33 -15.04 29.66 -13 30 C-16 32 -16 32 -20 32 C-20 32.66 -20 33.32 -20 34 C-21.98 34 -23.96 34 -26 34 C-22.44356055 20.4855301 -11.74116708 10.40813572 -2 1 C-1.34 0.67 -0.68 0.34 0 0 Z " fill="#1D9669" transform="translate(296,171)"/>
<path d="M0 0 C6.60436809 1.44973934 10.60502808 5.50235772 14.33203125 10.9453125 C17 15.45163428 17 15.45163428 17 18 C12.69235185 16.43358249 8.93828536 14.31663844 5 12 C5 11.34 5 10.68 5 10 C3.2984375 9.566875 3.2984375 9.566875 1.5625 9.125 C0.386875 8.75375 -0.78875 8.3825 -2 8 C-2.33 7.34 -2.66 6.68 -3 6 C-1.02 6.66 0.96 7.32 3 8 C1.84826645 5.53199953 0.95216435 3.95216435 -1 2 C-0.67 1.34 -0.34 0.68 0 0 Z " fill="#987E5A" transform="translate(220,341)"/>
<path d="M0 0 C1.17539996 0.92652701 2.34010577 1.86663387 3.5 2.8125 C4.1496875 3.33457031 4.799375 3.85664063 5.46875 4.39453125 C7 6 7 6 7 9 C7.66 9 8.32 9 9 9 C10.7265625 11.51953125 10.7265625 11.51953125 12.625 14.8125 C13.25664062 15.89144531 13.88828125 16.97039062 14.5390625 18.08203125 C16 21 16 21 16 24 C14.741875 24.020625 13.48375 24.04125 12.1875 24.0625 C11.47980469 24.07410156 10.77210938 24.08570313 10.04296875 24.09765625 C8 24 8 24 5 23 C5 22.34 5 21.68 5 21 C4.34 20.67 3.68 20.34 3 20 C4.98 20 6.96 20 9 20 C9.34681622 15.83820535 8.63162831 14.17988421 6 11 C6 10.34 6 9.68 6 9 C5.01 8.67 4.02 8.34 3 8 C0 2.77777778 0 2.77777778 0 0 Z " fill="#177853" transform="translate(211,187)"/>
<path d="M0 0 C-0.71167688 21.5957121 -0.71167688 21.5957121 -8 31 C-8.66 31 -9.32 31 -10 31 C-10 29.68 -10 28.36 -10 27 C-9.34 27 -8.68 27 -8 27 C-4.92328674 18.79543131 -3.52002193 10.61345759 -2 2 C-10.415 2.495 -10.415 2.495 -19 3 C-16.57800538 0.57800538 -15.64908926 0.65092009 -12.3125 0.375 C-11.06919922 0.26285156 -11.06919922 0.26285156 -9.80078125 0.1484375 C-6.53004066 -0.02490719 -3.27471235 -0.02422722 0 0 Z " fill="#1C9065" transform="translate(317,155)"/>
<path d="M0 0 C17.40265425 -0.40910399 33.60113222 -0.46894563 50 6 C50 6.33 50 6.66 50 7 C48.52031676 6.85950482 47.04125484 6.71245174 45.5625 6.5625 C44.73878906 6.48128906 43.91507813 6.40007812 43.06640625 6.31640625 C41 6 41 6 40 5 C38.21284356 4.79043117 36.41956231 4.63188384 34.625 4.5 C31.47979491 4.26763656 29.00372093 4.00124031 26 3 C24.0093556 2.85013589 22.01464609 2.75171962 20.01953125 2.68359375 C18.85615234 2.64169922 17.69277344 2.59980469 16.49414062 2.55664062 C14.67172852 2.49766602 14.67172852 2.49766602 12.8125 2.4375 C11.58595703 2.39431641 10.35941406 2.35113281 9.09570312 2.30664062 C6.06391619 2.2004691 3.03204685 2.09842048 0 2 C0 1.34 0 0.68 0 0 Z " fill="#FCF3DF" transform="translate(140,323)"/>
<path d="M0 0 C4.04160556 -0.05831395 8.08310205 -0.09370212 12.125 -0.125 C13.83816406 -0.15013672 13.83816406 -0.15013672 15.5859375 -0.17578125 C16.69453125 -0.18222656 17.803125 -0.18867188 18.9453125 -0.1953125 C20.46922607 -0.21102295 20.46922607 -0.21102295 22.02392578 -0.22705078 C25.28288429 0.02158182 27.95115207 0.85121636 31 2 C29 4 29 4 26.11083984 4.13525391 C24.30413818 4.05670166 24.30413818 4.05670166 22.4609375 3.9765625 C21.15898437 3.925 19.85703125 3.8734375 18.515625 3.8203125 C17.13540621 3.75543042 15.75519798 3.69032333 14.375 3.625 C12.98701851 3.56676301 11.5989975 3.50945967 10.2109375 3.453125 C6.80679074 3.31128555 3.40334154 3.15983765 0 3 C0 2.01 0 1.02 0 0 Z " fill="#C79548" transform="translate(140,320)"/>
<path d="M0 0 C0.99 0.33 1.98 0.66 3 1 C4.16796875 3.43359375 4.16796875 3.43359375 5.1875 6.4375 C5.70376953 7.92056641 5.70376953 7.92056641 6.23046875 9.43359375 C7 12 7 12 7 14 C6.01 14.33 5.02 14.66 4 15 C3.67 15.66 3.34 16.32 3 17 C2.34 17 1.68 17 1 17 C-0.38011717 11.56578866 -1.35111062 6.61776997 -1 1 C-0.67 0.67 -0.34 0.34 0 0 Z " fill="#179A69" transform="translate(242,287)"/>
<path d="M0 0 C0 0.33 0 0.66 0 1 C-1.87945312 1.39832031 -1.87945312 1.39832031 -3.796875 1.8046875 C-5.44797774 2.16117559 -7.09901607 2.51796206 -8.75 2.875 C-9.575 3.04902344 -10.4 3.22304688 -11.25 3.40234375 C-12.04921875 3.57636719 -12.8484375 3.75039063 -13.671875 3.9296875 C-14.4050293 4.08679199 -15.13818359 4.24389648 -15.89355469 4.40576172 C-18.04394103 4.93306722 -18.04394103 4.93306722 -20.02050781 6.06689453 C-22 7 -22 7 -26 7 C-25.828125 5.14453125 -25.828125 5.14453125 -25 3 C-17.03192117 -1.57477629 -8.80866393 -1.30709207 0 0 Z " fill="#CA984C" transform="translate(333,323)"/>
<path d="M0 0 C1.32 0.33 2.64 0.66 4 1 C5 6 6 11 7 16 C6.01 16.33 5.02 16.66 4 17 C2.93649337 15.11633147 1.89986771 13.2174671 0.875 11.3125 C0.00488281 9.72888672 0.00488281 9.72888672 -0.8828125 8.11328125 C-2 5 -2 5 -1.1796875 2.10546875 C-0.59574219 1.06326172 -0.59574219 1.06326172 0 0 Z " fill="#12A26C" transform="translate(234,272)"/>
<path d="M0 0 C-3.57924315 1.98663184 -7.16405741 3.96299036 -10.75 5.9375 C-12.27367187 6.78344727 -12.27367187 6.78344727 -13.828125 7.64648438 C-14.8078125 8.18466797 -15.7875 8.72285156 -16.796875 9.27734375 C-18.14797363 10.02359009 -18.14797363 10.02359009 -19.52636719 10.78491211 C-21.71533087 11.86016598 -23.61870262 12.53103021 -26 13 C-24.43541572 8.30624715 -21.21216103 6.41296653 -17 4 C-14.41531316 2.89197897 -11.791143 1.95460556 -9.125 1.0625 C-8.45839355 0.83900879 -7.79178711 0.61551758 -7.10498047 0.38525391 C-2.26889401 -1.134447 -2.26889401 -1.134447 0 0 Z " fill="#92908C" transform="translate(291,344)"/>
<path d="M0 0 C0.99 0 1.98 0 3 0 C7.75509375 10.81110939 11.22000712 20.98761128 11 33 C9.18509202 30.27763803 8.55537631 28.80091621 7.81640625 25.7265625 C7.61080078 24.9015625 7.40519531 24.0765625 7.19335938 23.2265625 C6.77479241 21.5004597 6.35810693 19.77389951 5.94335938 18.046875 C4.81075147 13.51644338 3.58997234 9.94348897 1 6 C0.3125 2.6875 0.3125 2.6875 0 0 Z " fill="#106142" transform="translate(234,160)"/>
<path d="M0 0 C0 1.65 0 3.3 0 5 C-0.495 3.02 -0.495 3.02 -1 1 C-5.455 1.495 -5.455 1.495 -10 2 C-10 2.66 -10 3.32 -10 4 C-11.299375 3.979375 -12.59875 3.95875 -13.9375 3.9375 C-15.29165633 3.91600546 -16.64756083 3.92851801 -18 4 C-18.33 4.33 -18.66 4.66 -19 5 C-20.40950688 5.29509061 -21.83026105 5.53705963 -23.25390625 5.75390625 C-24.10791016 5.88603516 -24.96191406 6.01816406 -25.84179688 6.15429688 C-26.73962891 6.28900391 -27.63746094 6.42371094 -28.5625 6.5625 C-29.46419922 6.70107422 -30.36589844 6.83964844 -31.29492188 6.98242188 C-33.52941433 7.32528051 -35.7644227 7.66430023 -38 8 C-37 6 -37 6 -33.4375 4.5625 C-22.49430411 1.14710765 -11.45841702 -0.58594178 0 0 Z " fill="#7B5D1F" transform="translate(355,182)"/>
<path d="M0 0 C1.32 0.33 2.64 0.66 4 1 C0.74050951 8.83702631 -7.44344728 14.28001229 -14.9921875 17.5390625 C-17.33256762 18.07634821 -18.74672012 17.75782956 -21 17 C-20.01 16.67 -19.02 16.34 -18 16 C-17.67 15.34 -17.34 14.68 -17 14 C-14.35139573 13.40644386 -11.70802678 13.25790731 -9 13 C-9.33 12.01 -9.66 11.02 -10 10 C-8 8 -8 8 -5.375 7.875 C-4.59125 7.91625 -3.8075 7.9575 -3 8 C-3.33 7.01 -3.66 6.02 -4 5 C-4.99 5.495 -4.99 5.495 -6 6 C-5.67 5.01 -5.34 4.02 -5 3 C-2.525 3.495 -2.525 3.495 0 4 C0 2.68 0 1.36 0 0 Z " fill="#107B52" transform="translate(311,257)"/>
<path d="M0 0 C0.33 0 0.66 0 1 0 C1.042721 1.66611905 1.04063832 3.33382885 1 5 C0.67 5.33 0.34 5.66 0 6 C-0.04092937 8.33297433 -0.04241723 10.66705225 0 13 C-6.75 15.125 -6.75 15.125 -9 14 C-8.67 11.69 -8.34 9.38 -8 7 C-6.68 7 -5.36 7 -4 7 C-2.68 4.69 -1.36 2.38 0 0 Z " fill="#0F9F6A" transform="translate(252,214)"/>
<path d="M0 0 C1.51303711 0.00676758 1.51303711 0.00676758 3.05664062 0.01367188 C5.51699147 0.02533231 7.97721239 0.04169622 10.4375 0.0625 C10.4375 0.7225 10.4375 1.3825 10.4375 2.0625 C9.59453369 2.08755615 8.75156738 2.1126123 7.88305664 2.13842773 C4.76508326 2.23338155 1.64728497 2.33262448 -1.47045898 2.43481445 C-2.82164147 2.47821223 -4.17288053 2.5198837 -5.52416992 2.55981445 C-7.46286701 2.61739952 -9.40136276 2.68164298 -11.33984375 2.74609375 C-12.50765381 2.78275146 -13.67546387 2.81940918 -14.87866211 2.85717773 C-17.48029795 2.76326188 -17.48029795 2.76326188 -18.5625 4.0625 C-20.24858966 4.13455511 -21.93750659 4.14636068 -23.625 4.125 C-24.54410156 4.11597656 -25.46320313 4.10695313 -26.41015625 4.09765625 C-27.12042969 4.08605469 -27.83070313 4.07445312 -28.5625 4.0625 C-28.5625 3.7325 -28.5625 3.4025 -28.5625 3.0625 C-18.99886024 0.45423461 -9.89556647 -0.08513724 0 0 Z " fill="#FDF6DF" transform="translate(348.5625,322.9375)"/>
<path d="M0 0 C3.29158865 -0.05905417 6.58303756 -0.09394375 9.875 -0.125 C10.7928125 -0.14175781 11.710625 -0.15851563 12.65625 -0.17578125 C19.00812606 -0.22051277 24.82610036 0.51148437 31 2 C31 2.33 31 2.66 31 3 C30.25878906 2.9278125 29.51757812 2.855625 28.75390625 2.78125 C19.48180215 1.96412455 10.30113354 1.89974826 1 2 C1.144375 2.88042969 1.28875 3.76085937 1.4375 4.66796875 C1.623125 5.82941406 1.80875 6.99085938 2 8.1875 C2.185625 9.33605469 2.37125 10.48460937 2.5625 11.66796875 C2.93489477 14.50415393 3.08596021 17.14719564 3 20 C0.32266002 17.32968716 -0.00280229 15.96278559 -0.29296875 12.109375 C-0.27314945 10.65595991 -0.23754845 9.20268833 -0.1875 7.75 C-0.17396484 7.00492188 -0.16042969 6.25984375 -0.14648438 5.4921875 C-0.11127204 3.66114584 -0.05746851 1.83047831 0 0 Z " fill="#797879" transform="translate(169,222)"/>
<path d="M0 0 C-0.5625 2.3125 -0.5625 2.3125 -2 5 C-6.07160378 7.22785867 -9.34797716 8.42291117 -14 8 C-14 7.34 -14 6.68 -14 6 C-14.66 5.67 -15.32 5.34 -16 5 C-11.33241179 1.68751805 -5.74056664 0 0 0 Z " fill="#C28E44" transform="translate(308,326)"/>
<path d="M0 0 C0.66 0 1.32 0 2 0 C1.42437172 3.33864404 0.40936384 4.69102632 -2 7 C-3.22716023 10.6814807 -3.18406814 14.10410762 -3.1875 17.9375 C-3.19974609 18.65357422 -3.21199219 19.36964844 -3.22460938 20.10742188 C-3.23539923 23.9881737 -2.91931306 26.6351792 -1 30 C-1.875 32.25 -1.875 32.25 -3 34 C-3.66 34 -4.32 34 -5 34 C-5.04947698 30.06734104 -5.08575578 26.13480286 -5.10986328 22.2019043 C-5.12485495 20.20680382 -5.15026731 18.21179054 -5.17578125 16.21679688 C-5.18222656 14.96318359 -5.18867188 13.70957031 -5.1953125 12.41796875 C-5.20578613 11.26063232 -5.21625977 10.1032959 -5.22705078 8.91088867 C-5 6 -5 6 -3 3 C-2.34 3 -1.68 3 -1 3 C-0.67 2.01 -0.34 1.02 0 0 Z " fill="#909291" transform="translate(265,225)"/>
<path d="M0 0 C0.33 0 0.66 0 1 0 C2.125 6.625 2.125 6.625 1 10 C1.66 10 2.32 10 3 10 C3 10.66 3 11.32 3 12 C2.34 12 1.68 12 1 12 C1 12.66 1 13.32 1 14 C0.34 14 -0.32 14 -1 14 C-1 15.98 -1 17.96 -1 20 C-2.32 19.67 -3.64 19.34 -5 19 C-5.25 13.375 -5.25 13.375 -3 10 C-2.41162754 8.28616279 -1.87280046 6.55480159 -1.375 4.8125 C-1.11460937 3.91144531 -0.85421875 3.01039063 -0.5859375 2.08203125 C-0.39257812 1.39496094 -0.19921875 0.70789063 0 0 Z " fill="#169F6C" transform="translate(262,188)"/>
<path d="M0 0 C3.32447428 1.46895375 5.76102677 2.75456804 8.3125 5.375 C11.33462032 8.32683845 14.34886526 9.93371167 18.109375 11.7890625 C20 13 20 13 21 16 C13.65667196 14.97565895 6.61679737 10.27645338 1.8125 4.6875 C0 2 0 2 0 0 Z " fill="#126447" transform="translate(189,191)"/>
<path d="M0 0 C-1.9115825 1.79736845 -3.82886184 3.58789474 -5.75 5.375 C-6.55824219 6.13683594 -6.55824219 6.13683594 -7.3828125 6.9140625 C-10.09097827 9.4240698 -12.55080159 11.61027443 -16 13 C-17.25 6.375 -17.25 6.375 -15 3 C-14.67 3.33 -14.34 3.66 -14 4 C-12.00041636 4.04080783 -9.99954746 4.04254356 -8 4 C-7.67 3.01 -7.34 2.02 -7 1 C-2.55696203 -1.27848101 -2.55696203 -1.27848101 0 0 Z " fill="#119463" transform="translate(285,180)"/>
<path d="M0 0 C6.93996548 0.02847165 13.07661208 1.21588064 19.6875 3.25 C16.67718256 4.18423645 15.82099732 4.29449911 12.6875 3.25 C11.28085074 3.10507877 9.8693867 3.00371069 8.45703125 2.93359375 C7.25336914 2.87075195 7.25336914 2.87075195 6.02539062 2.80664062 C5.19201172 2.76732422 4.35863281 2.72800781 3.5 2.6875 C2.65501953 2.64431641 1.81003906 2.60113281 0.93945312 2.55664062 C-1.14434433 2.45068482 -3.22840103 2.3498498 -5.3125 2.25 C-4.9825 6.21 -4.6525 10.17 -4.3125 14.25 C-6.39807757 11.12163364 -6.67643593 9.76376966 -7 6.125 C-7.08636719 5.23554688 -7.17273438 4.34609375 -7.26171875 3.4296875 C-7.27847656 2.71039063 -7.29523438 1.99109375 -7.3125 1.25 C-5.45145698 -0.61104302 -2.49213202 0.0326837 0 0 Z " fill="#10412F" transform="translate(182.3125,227.75)"/>
<path d="M0 0 C0.625 1.8125 0.625 1.8125 1 4 C0.01 5.485 0.01 5.485 -1 7 C-0.01 7 0.98 7 2 7 C2 7.66 2 8.32 2 9 C0.5903653 9.70180531 -0.82807641 10.38593958 -2.25 11.0625 C-3.03890625 11.44535156 -3.8278125 11.82820312 -4.640625 12.22265625 C-7.25993522 13.08564091 -8.44855176 12.93045933 -11 12 C-10.45730469 11.46890625 -9.91460937 10.9378125 -9.35546875 10.390625 C-8.64003906 9.68421875 -7.92460937 8.9778125 -7.1875 8.25 C-6.47980469 7.55390625 -5.77210938 6.8578125 -5.04296875 6.140625 C-3.17724121 4.18571355 -1.56830358 2.19661447 0 0 Z " fill="#A2792E" transform="translate(316,190)"/>
<path d="M0 0 C0.33 0 0.66 0 1 0 C1 13.53 1 27.06 1 41 C-0.485 41.495 -0.485 41.495 -2 42 C-2.33 40.02 -2.66 38.04 -3 36 C-2.67 36 -2.34 36 -2 36 C-1.96241577 34.89712646 -1.96241577 34.89712646 -1.92407227 33.77197266 C-1.8068955 30.38952308 -1.68472877 27.00727064 -1.5625 23.625 C-1.52318359 22.46871094 -1.48386719 21.31242187 -1.44335938 20.12109375 C-1.19577173 13.37909185 -0.78053875 6.70209838 0 0 Z " fill="#0D422E" transform="translate(248,158)"/>
<path d="M0 0 C3.58875 0.185625 3.58875 0.185625 7.25 0.375 C8.37003418 0.42599854 8.37003418 0.42599854 9.51269531 0.47802734 C13.12277656 0.69261259 15.92053049 1.04755284 19 3 C19 3.33 19 3.66 19 4 C13.25 4.125 13.25 4.125 11 3 C7.7 2.67 4.4 2.34 1 2 C1 9.59 1 17.18 1 25 C0.67 25 0.34 25 0 25 C0 16.75 0 8.5 0 0 Z " fill="#E1B14D" transform="translate(147,183)"/>
<path d="M0 0 C2.05078125 0.03255208 4.1015625 0.06510417 6.15234375 0.09765625 C6.15234375 0.75765625 6.15234375 1.41765625 6.15234375 2.09765625 C5.38567383 2.24388428 4.61900391 2.3901123 3.82910156 2.54077148 C0.35329126 3.20439749 -3.12218491 3.86975746 -6.59765625 4.53515625 C-7.80421875 4.76525391 -9.01078125 4.99535156 -10.25390625 5.23242188 C-11.4140625 5.45478516 -12.57421875 5.67714844 -13.76953125 5.90625 C-15.37199707 6.21260376 -15.37199707 6.21260376 -17.00683594 6.52514648 C-19.30934184 6.98916989 -21.57667291 7.50116379 -23.84765625 8.09765625 C-23.84765625 7.43765625 -23.84765625 6.77765625 -23.84765625 6.09765625 C-22.85765625 6.09765625 -21.86765625 6.09765625 -20.84765625 6.09765625 C-20.84765625 5.43765625 -20.84765625 4.77765625 -20.84765625 4.09765625 C-19.55988281 3.89269531 -18.27210938 3.68773437 -16.9453125 3.4765625 C-15.26689262 3.20463973 -13.58850905 2.93249274 -11.91015625 2.66015625 C-11.06001953 2.52544922 -10.20988281 2.39074219 -9.33398438 2.25195312 C-8.52509766 2.11982422 -7.71621094 1.98769531 -6.8828125 1.8515625 C-5.75951538 1.67089233 -5.75951538 1.67089233 -4.61352539 1.48657227 C-2.49879908 1.02082375 -2.1904772 0.11577575 0 0 Z " fill="#EEBE57" transform="translate(341.84765625,190.90234375)"/>
<path d="M0 0 C4.60202755 0.72823293 6.47813935 3.21552129 9.3828125 6.65625 C11.81592353 10.18249787 12.99502157 13.86523161 14 18 C13.34 18 12.68 18 12 18 C12 17.01 12 16.02 12 15 C11.01 15.33 10.02 15.66 9 16 C8.896875 15.21625 8.79375 14.4325 8.6875 13.625 C8.22404978 10.66954819 8.22404978 10.66954819 5 9 C5 8.01 5 7.02 5 6 C4.360625 5.7525 3.72125 5.505 3.0625 5.25 C1 4 1 4 0.25 1.875 C0.1675 1.25625 0.085 0.6375 0 0 Z " fill="#147752" transform="translate(218,170)"/>
<path d="M0 0 C2.97 0 5.94 0 9 0 C8.67 10.89 8.34 21.78 8 33 C7.67 33 7.34 33 7 33 C7 22.77 7 12.54 7 2 C5.02 2 3.04 2 1 2 C0.67 1.34 0.34 0.68 0 0 Z " fill="#D2A74C" transform="translate(345,183)"/>
<path d="M0 0 C0.33 0 0.66 0 1 0 C1 7.26 1 14.52 1 22 C-1.36300349 19.63699651 -1.51433444 18.4201502 -2.125 15.1875 C-2.29257813 14.33542969 -2.46015625 13.48335937 -2.6328125 12.60546875 C-3.37682671 7.32613387 -3.16242002 4.42738803 0 0 Z " fill="#22986B" transform="translate(246,174)"/>
<path d="M0 0 C0 0.33 0 0.66 0 1 C-1.00417969 1.10957031 -2.00835937 1.21914062 -3.04296875 1.33203125 C-19.19661194 2.9474443 -19.19661194 2.9474443 -34 9 C-36.3125 8.6875 -36.3125 8.6875 -38 8 C-33.05124624 4.92880471 -28.60804758 3.02746348 -22.9375 1.75 C-22.20668213 1.58016602 -21.47586426 1.41033203 -20.72290039 1.23535156 C-13.76715008 -0.26232326 -7.10946441 -0.40561128 0 0 Z " fill="#0A402B" transform="translate(324,228)"/>
<path d="M0 0 C1 3 1 3 0.4375 4.9375 C-0.1280306 7.60357285 0.61738438 8.72275075 2 11 C1.195625 11.5775 0.39125 12.155 -0.4375 12.75 C-2.97866739 14.98126893 -3.65120368 15.74456771 -4 19 C-5.32 19.33 -6.64 19.66 -8 20 C-5.33333333 13.33333333 -2.66666667 6.66666667 0 0 Z " fill="#126949" transform="translate(268,256)"/>
<path d="M0 0 C0.66 0.33 1.32 0.66 2 1 C1.2884375 1.61875 1.2884375 1.61875 0.5625 2.25 C-1.14606588 3.85714293 -1.14606588 3.85714293 -1.34765625 5.9140625 C-2.22642209 8.72400836 -3.59597226 9.48510965 -6 11.125 C-9.02283894 13.10073376 -9.02283894 13.10073376 -11 16 C-10.34 16.33 -9.68 16.66 -9 17 C-10.32 17.33 -11.64 17.66 -13 18 C-11.7064371 13.19132053 -9.90772967 10.35688271 -6.5 6.75 C-5.7059375 5.89921875 -4.911875 5.0484375 -4.09375 4.171875 C-2.74154305 2.76921256 -1.3776657 1.3776657 0 0 Z " fill="#6F593D" transform="translate(276,341)"/>
<path d="M0 0 C11.40221402 5.40221402 11.40221402 5.40221402 15 9 C15 9.99 15 10.98 15 12 C9.33846154 10.52307692 9.33846154 10.52307692 7.625 7.875 C7.41875 7.25625 7.2125 6.6375 7 6 C5.824375 6.0928125 5.824375 6.0928125 4.625 6.1875 C3.75875 6.125625 2.8925 6.06375 2 6 C0 3 0 3 0 0 Z " fill="#F9F4E7" transform="translate(208,337)"/>
<path d="M0 0 C7.62951555 -0.34855655 13.92444501 -0.0017506 21 3 C17.70303895 4.09898702 16.59505097 3.87124444 13.3125 3.0625 C12.50425781 2.86785156 11.69601563 2.67320312 10.86328125 2.47265625 C9.94095703 2.23869141 9.94095703 2.23869141 9 2 C9 2.66 9 3.32 9 4 C6.36 4 3.72 4 1 4 C0.67 2.68 0.34 1.36 0 0 Z " fill="#926C34" transform="translate(169,321)"/>
<path d="M0 0 C3.83682273 1.27894091 4.07042359 2.52676247 6 6 C6.721875 7.03125 7.44375 8.0625 8.1875 9.125 C10 12 10 12 10 15 C4.5814234 15.22577402 0.22512279 14.46670113 -5 13 C-0.70272603 11.69339643 2.60215865 12.3403238 7 13 C5.11545698 8.6479983 5.11545698 8.6479983 1.8125 5.375 C1.214375 4.92125 0.61625 4.4675 0 4 C0 2.68 0 1.36 0 0 Z " fill="#164B38" transform="translate(215,263)"/>
<path d="M0 0 C0.66 0.33 1.32 0.66 2 1 C1.24976563 1.64324219 0.49953125 2.28648437 -0.2734375 2.94921875 C-7.90021907 9.63329406 -14.08813764 16.77309419 -20 25 C-20.33 24.01 -20.66 23.02 -21 22 C-19.36256801 19.7537792 -17.72514344 17.74555097 -15.875 15.6875 C-14.89304647 14.56656627 -13.9112747 13.44547328 -12.9296875 12.32421875 C-12.19697632 11.49942017 -12.19697632 11.49942017 -11.44946289 10.65795898 C-10.0296102 9.03386944 -8.6625724 7.37599422 -7.30078125 5.703125 C-5.02218806 3.02606815 -3.18420149 1.4630115 0 0 Z " fill="#074329" transform="translate(296,171)"/>
<path d="M0 0 C0 0.99 0 1.98 0 3 C-1.72744016 3.65043719 -3.4570369 4.29514844 -5.1875 4.9375 C-6.15042969 5.29714844 -7.11335938 5.65679687 -8.10546875 6.02734375 C-10.7368278 6.91156562 -13.26894908 7.52568586 -16 8 C-11.26790219 2.90389466 -7.23125277 -0.68869074 0 0 Z " fill="#F8F2E7" transform="translate(291,340)"/>
<path d="M0 0 C1.43791516 0.14168137 2.8753237 0.28851043 4.3125 0.4375 C5.11300781 0.51871094 5.91351563 0.59992188 6.73828125 0.68359375 C9 1 9 1 12 2 C12 2.66 12 3.32 12 4 C12.66 4.33 13.32 4.66 14 5 C14 5.66 14 6.32 14 7 C8.60204011 5.84941444 3.29012667 4.57578241 -2 3 C-1.34 2.67 -0.68 2.34 0 2 C0 1.34 0 0.68 0 0 Z " fill="#C39049" transform="translate(178,323)"/>
<path d="M0 0 C0.99 0 1.98 0 3 0 C3 1.32 3 2.64 3 4 C3.66 4 4.32 4 5 4 C5 5.32 5 6.64 5 8 C5.66 8 6.32 8 7 8 C7.625 10.375 7.625 10.375 8 13 C7.34 13.66 6.68 14.32 6 15 C2.22279206 10.50332388 0 5.9028782 0 0 Z " fill="#177853" transform="translate(182,176)"/>
<path d="M0 0 C2 2 2 2 2 6 C1.34 6 0.68 6 0 6 C0 7.32 0 8.64 0 10 C-0.66 10 -1.32 10 -2 10 C-2 10.99 -2 11.98 -2 13 C-2.99 13 -3.98 13 -5 13 C-5 11.35 -5 9.7 -5 8 C-4.34 8 -3.68 8 -3 8 C-2.87625 7.236875 -2.7525 6.47375 -2.625 5.6875 C-2 3 -2 3 0 0 Z " fill="#09A46A" transform="translate(267,267)"/>
<path d="M0 0 C0.66 0.33 1.32 0.66 2 1 C1.67 1.99 1.34 2.98 1 4 C2.32 3.67 3.64 3.34 5 3 C5 6 5 6 3.46875 7.82421875 C2.49421875 8.74654297 2.49421875 8.74654297 1.5 9.6875 C0.8503125 10.31011719 0.200625 10.93273437 -0.46875 11.57421875 C-0.9740625 12.04472656 -1.479375 12.51523437 -2 13 C-3.13615308 9.22349118 -2.62179534 7.60398964 -1 4 C-0.64141484 2.67323492 -0.2981424 1.34164079 0 0 Z " fill="#129162" transform="translate(280,252)"/>
<path d="M0 0 C1.17539996 0.92652701 2.34010577 1.86663387 3.5 2.8125 C4.1496875 3.33457031 4.799375 3.85664063 5.46875 4.39453125 C7 6 7 6 7 9 C7.66 9 8.32 9 9 9 C10.6875 11.375 10.6875 11.375 12 14 C11.67 14.66 11.34 15.32 11 16 C9.29115995 14.37660195 7.62553283 12.70680947 6 11 C6 10.34 6 9.68 6 9 C5.01 8.67 4.02 8.34 3 8 C0 2.77777778 0 2.77777778 0 0 Z " fill="#146648" transform="translate(211,187)"/>
<path d="M0 0 C0.33 0.66 0.66 1.32 1 2 C2.25659424 1.9388501 2.25659424 1.9388501 3.53857422 1.87646484 C6.64308476 1.73031444 9.74782488 1.59344424 12.85302734 1.46289062 C14.19759566 1.40444525 15.54200798 1.34228924 16.88623047 1.27636719 C18.81693337 1.18232557 20.7483203 1.10267308 22.6796875 1.0234375 C24.42354736 0.94488525 24.42354736 0.94488525 26.20263672 0.86474609 C29 1 29 1 31 3 C26.87884937 3.79790205 23.13508123 4.07327696 18.9453125 3.87890625 C17.83671875 3.83056641 16.728125 3.78222656 15.5859375 3.73242188 C13.87277344 3.64831055 13.87277344 3.64831055 12.125 3.5625 C10.9596875 3.51029297 9.794375 3.45808594 8.59375 3.40429688 C5.72886075 3.27514203 2.86436653 3.14019818 0 3 C0 2.01 0 1.02 0 0 Z " fill="#CAA266" transform="translate(140,320)"/>
<path d="M0 0 C0.66 0.33 1.32 0.66 2 1 C1.401875 1.391875 0.80375 1.78375 0.1875 2.1875 C-2.14228512 3.88103931 -2.14228512 3.88103931 -3.3125 6.5 C-5.68484382 10.01458344 -8.05268973 10.58492651 -12 12 C-10.63016497 8.83884224 -10.0109362 8.0072908 -7 6 C-7.33 5.34 -7.66 4.68 -8 4 C-6.71349294 3.30289269 -5.42059335 2.61757124 -4.125 1.9375 C-3.40570313 1.55464844 -2.68640625 1.17179688 -1.9453125 0.77734375 C-1.30335938 0.52082031 -0.66140625 0.26429688 0 0 Z " fill="#054E2B" transform="translate(302,245)"/>
<path d="M0 0 C4.01930963 0.61835533 6.7123734 2.69866138 10 5 C11.093125 5.70125 12.18625 6.4025 13.3125 7.125 C16 9 16 9 17 11 C16.401875 10.814375 15.80375 10.62875 15.1875 10.4375 C12.83591238 9.77906313 12.83591238 9.77906313 10 11 C9.34 10.67 8.68 10.34 8 10 C7.938125 9.236875 7.87625 8.47375 7.8125 7.6875 C6.85116817 4.5077101 6.23124816 4.2582821 3.4375 2.6875 C2.303125 2.130625 1.16875 1.57375 0 1 C0 0.67 0 0.34 0 0 Z " fill="#705328" transform="translate(208,332)"/>
<path d="M0 0 C2.97 0 5.94 0 9 0 C9.33 0.66 9.66 1.32 10 2 C10.99 2.33 11.98 2.66 13 3 C13.6875 5.0625 13.6875 5.0625 14 7 C9.24190251 6.40523781 5.05289706 4.5093872 1 2 C0.67 1.34 0.34 0.68 0 0 Z " fill="#10694A" transform="translate(195,268)"/>
<path d="M0 0 C0.33 0 0.66 0 1 0 C1 2.64 1 5.28 1 8 C-0.32 8.33 -1.64 8.66 -3 9 C-3.33 16.26 -3.66 23.52 -4 31 C-4.33 31 -4.66 31 -5 31 C-5 23.08 -5 15.16 -5 7 C-3.35 6.67 -1.7 6.34 0 6 C0 4.02 0 2.04 0 0 Z " fill="#ABABAB" transform="translate(126,209)"/>
<path d="M0 0 C1.38200634 5.52802538 -0.32579149 8.97108842 -3.0234375 13.8515625 C-4.0625 15.5 -4.0625 15.5 -6 18 C-6.66 18 -7.32 18 -8 18 C-8 16.68 -8 15.36 -8 14 C-7.34 14 -6.68 14 -6 14 C-5.34 12.02 -4.68 10.04 -4 8 C-3.34 8 -2.68 8 -2 8 C-1.34 5.36 -0.68 2.72 0 0 Z " fill="#115F40" transform="translate(315,168)"/>
<path d="M0 0 C0.33 0 0.66 0 1 0 C2.11165232 4.4378561 2.11527763 8.76956386 2.0625 13.3125 C2.05798828 14.05306641 2.05347656 14.79363281 2.04882812 15.55664062 C2.03712175 17.37112899 2.01918898 19.18557534 2 21 C-0.94667952 17.97577629 -1.34534737 15.58567794 -1.3125 11.4140625 C-1.291875 10.74117187 -1.27125 10.06828125 -1.25 9.375 C-1.24484375 8.694375 -1.2396875 8.01375 -1.234375 7.3125 C-1.15529337 2.31058673 -1.15529337 2.31058673 0 0 Z " fill="#053E25" transform="translate(250,139)"/>
<path d="M0 0 C3.98449471 1.29226855 5.75211009 2.48156362 8 6 C8.94921875 8.578125 8.94921875 8.578125 9.6875 11.25 C10.06455078 12.58804688 10.06455078 12.58804688 10.44921875 13.953125 C10.63097656 14.62859375 10.81273437 15.3040625 11 16 C8.57297563 13.7323623 6.76398733 11.33259459 4.9375 8.5625 C4.43089844 7.80066406 3.92429688 7.03882813 3.40234375 6.25390625 C2.13280317 4.21344687 1.0322381 2.1681939 0 0 Z " fill="#116444" transform="translate(224,196)"/>
<path d="M0 0 C3.51035302 0.94554964 4.74013186 1.55809863 6.6171875 4.75 C7.03226563 5.8225 7.44734375 6.895 7.875 8 C8.30554688 9.0725 8.73609375 10.145 9.1796875 11.25 C10 14 10 14 9 16 C7.68370433 13.89812468 6.37187003 11.79368324 5.0625 9.6875 C4.68931641 9.09259766 4.31613281 8.49769531 3.93164062 7.88476562 C2.31175806 5.27252256 0.97592942 2.92778827 0 0 Z " fill="#136141" transform="translate(225,267)"/>
<path d="M0 0 C0.66 0.33 1.32 0.66 2 1 C1.375 3.375 1.375 3.375 0 6 C-2 6.66666667 -4 7.33333333 -6 8 C-7.43923199 10.50995496 -7.43923199 10.50995496 -8 13 C-8.99 13 -9.98 13 -11 13 C-9.63422544 8.71506993 -7.79318655 6.56854295 -4.375 3.6875 C-3.55773437 2.99011719 -2.74046875 2.29273438 -1.8984375 1.57421875 C-0.95871094 0.79498047 -0.95871094 0.79498047 0 0 Z " fill="#0D5A3E" transform="translate(284,237)"/>
<path d="M0 0 C4.29 0 8.58 0 13 0 C13 0.66 13 1.32 13 2 C14.32 2 15.64 2 17 2 C17.33 2.99 17.66 3.98 18 5 C9.09 3.02 9.09 3.02 0 1 C0 0.67 0 0.34 0 0 Z " fill="#EEC15C" transform="translate(160,193)"/>
<path d="M0 0 C3.56311466 1.78155733 5.35645475 3.16763009 8 6 C7.67 6.66 7.34 7.32 7 8 C6.2575 7.319375 5.515 6.63875 4.75 5.9375 C2.27926862 3.81890713 2.27926862 3.81890713 -0.0625 3.9375 C-2.77803069 5.42666199 -4.21303751 7.51101654 -6 10 C-6.66 9.67 -7.32 9.34 -8 9 C-5.36 6.03 -2.72 3.06 0 0 Z " fill="#1B986A" transform="translate(249,112)"/>
<path d="M0 0 C-11.08886256 8.37322275 -11.08886256 8.37322275 -16.4375 7.6875 C-16.953125 7.460625 -17.46875 7.23375 -18 7 C-17.01 6.67 -16.02 6.34 -15 6 C-14.67 5.34 -14.34 4.68 -14 4 C-11.35139573 3.40644386 -8.70802678 3.25790731 -6 3 C-6.33 2.01 -6.66 1.02 -7 0 C-2.25 -1.125 -2.25 -1.125 0 0 Z " fill="#0C583C" transform="translate(308,267)"/>
<path d="M0 0 C0.85276722 2.41707906 1.12087895 3.64003451 0.29296875 6.10546875 C-0.25423828 7.13607422 -0.25423828 7.13607422 -0.8125 8.1875 C-1.34810547 9.22970703 -1.34810547 9.22970703 -1.89453125 10.29296875 C-3 12 -3 12 -5 13 C-5 10.69 -5 8.38 -5 6 C-4.34 5.67 -3.68 5.34 -3 5 C-1.9590934 3.35857037 -0.95495674 1.69287785 0 0 Z " fill="#12694A" transform="translate(320,245)"/>
<path d="M0 0 C5.11940422 3.90691374 5.83414946 7.49037742 6.73828125 13.76953125 C6.82464844 14.50558594 6.91101563 15.24164063 7 16 C2.94054924 12.25460417 0.21184513 7.54214156 -0.25 2 C-0.1675 1.34 -0.085 0.68 0 0 Z " fill="#0F5B3F" transform="translate(178,242)"/>
<path d="M0 0 C1.65 0 3.3 0 5 0 C3.68 0.33 2.36 0.66 1 1 C1.144375 1.88042969 1.28875 2.76085937 1.4375 3.66796875 C1.623125 4.82941406 1.80875 5.99085938 2 7.1875 C2.185625 8.33605469 2.37125 9.48460937 2.5625 10.66796875 C2.93489477 13.50415393 3.08596021 16.14719564 3 19 C0.43238452 16.38521048 0.0043655 15.05471424 -0.29296875 11.328125 C-0.27316751 9.96843965 -0.23759202 8.6089066 -0.1875 7.25 C-0.17396484 6.55261719 -0.16042969 5.85523438 -0.14648438 5.13671875 C-0.1112945 3.42414459 -0.05749155 1.71197059 0 0 Z " fill="#606060" transform="translate(169,223)"/>
<path d="M0 0 C-3 2 -3 2 -5 2 C-5 2.66 -5 3.32 -5 4 C-7.64 4.33 -10.28 4.66 -13 5 C-12 2 -12 2 -10.4375 0.8125 C-6.88877617 -0.37040794 -3.73298379 -0.12443279 0 0 Z " fill="#176B4D" transform="translate(298,157)"/>
<path d="M0 0 C5.66153846 1.47692308 5.66153846 1.47692308 7.375 4.125 C7.58125 4.74375 7.7875 5.3625 8 6 C7.01 6.495 7.01 6.495 6 7 C4.0546875 6.22265625 4.0546875 6.22265625 1.875 5.0625 C1.15054688 4.68222656 0.42609375 4.30195313 -0.3203125 3.91015625 C-0.87460938 3.60980469 -1.42890625 3.30945313 -2 3 C-1.34 2.01 -0.68 1.02 0 0 Z " fill="#BF9352" transform="translate(209,334)"/>
<path d="M0 0 C0.99 0 1.98 0 3 0 C2.84660156 0.64324219 2.69320312 1.28648437 2.53515625 1.94921875 C1.84253326 5.89767537 1.64199119 9.8131887 1.4375 13.8125 C1.39431641 14.60076172 1.35113281 15.38902344 1.30664062 16.20117188 C1.20121679 18.13394215 1.10016906 20.06695026 1 22 C0.67 22 0.34 22 0 22 C0 14.74 0 7.48 0 0 Z " fill="#147A54" transform="translate(248,136)"/>
<path d="M0 0 C3.67420866 0.30618405 4.78135513 0.75771784 7.3125 3.5625 C8.1478125 4.7690625 8.1478125 4.7690625 9 6 C3.25 5.125 3.25 5.125 1 4 C0.375 1.9375 0.375 1.9375 0 0 Z " fill="#B9B2A5" transform="translate(224,349)"/>
<path d="M0 0 C1.45792884 -0.05399736 2.91642712 -0.09279177 4.375 -0.125 C5.18710938 -0.14820313 5.99921875 -0.17140625 6.8359375 -0.1953125 C9 0 9 0 11 2 C11 2.99 11 3.98 11 5 C6.87248551 4.39301257 3.6678852 2.96189209 0 1 C0 0.67 0 0.34 0 0 Z " fill="#999899" transform="translate(206,342)"/>
<path d="M0 0 C0.66 0.33 1.32 0.66 2 1 C2.4140625 3.06640625 2.4140625 3.06640625 2.625 5.5625 C2.69976562 6.38878906 2.77453125 7.21507812 2.8515625 8.06640625 C2.92503906 9.02353516 2.92503906 9.02353516 3 10 C2.01 10.495 2.01 10.495 1 11 C-0.62950412 6.87831311 -1.26264601 4.29299643 0 0 Z " fill="#08A56A" transform="translate(242,287)"/>
<path d="M0 0 C0.66 0 1.32 0 2 0 C2 3.63 2 7.26 2 11 C1.34 11 0.68 11 0 11 C-0.33 11.66 -0.66 12.32 -1 13 C-1.02708567 11.39592672 -1.04643483 9.7917215 -1.0625 8.1875 C-1.07410156 7.29417969 -1.08570313 6.40085937 -1.09765625 5.48046875 C-1 3 -1 3 0 0 Z " fill="#188D60" transform="translate(259,285)"/>
<path d="M0 0 C0.99 0.33 1.98 0.66 3 1 C2.01 1.495 2.01 1.495 1 2 C1 3.98 1 5.96 1 8 C-0.32 7.67 -1.64 7.34 -3 7 C-2.25 2.25 -2.25 2.25 0 0 Z " fill="#0CA46C" transform="translate(260,200)"/>
<path d="M0 0 C1.32 0.33 2.64 0.66 4 1 C5.046875 3.06640625 5.046875 3.06640625 5.75 5.5625 C5.99234375 6.38878906 6.2346875 7.21507812 6.484375 8.06640625 C6.65453125 8.70449219 6.8246875 9.34257812 7 10 C6.34 10 5.68 10 5 10 C5 9.01 5 8.02 5 7 C4.01 7.33 3.02 7.66 2 8 C1.34 5.36 0.68 2.72 0 0 Z " fill="#1A8A5F" transform="translate(225,178)"/>
<path d="M0 0 C2.60444348 -0.05394705 5.20776998 -0.09364469 7.8125 -0.125 C8.55048828 -0.14175781 9.28847656 -0.15851563 10.04882812 -0.17578125 C13.91246426 -0.21074628 15.70903668 -0.19397555 19 2 C17.34385343 2.38218767 15.67542976 2.71395102 14 3 C13.67 2.67 13.34 2.34 13 2 C10.98405418 1.76572222 8.961526 1.58663876 6.9375 1.4375 C5.83277344 1.35371094 4.72804687 1.26992187 3.58984375 1.18359375 C2.73519531 1.12300781 1.88054687 1.06242188 1 1 C0.67 1.66 0.34 2.32 0 3 C0 2.01 0 1.02 0 0 Z " fill="#1E8B63" transform="translate(181,162)"/>
<path d="M0 0 C0 0.66 0 1.32 0 2 C0.66 2.33 1.32 2.66 2 3 C-2.30769231 6.07692308 -2.30769231 6.07692308 -5.8125 5.6875 C-6.534375 5.460625 -7.25625 5.23375 -8 5 C-7.67 4.34 -7.34 3.68 -7 3 C-6.01 3 -5.02 3 -4 3 C-4 2.34 -4 1.68 -4 1 C-2 0 -2 0 0 0 Z " fill="#C09656" transform="translate(294,332)"/>
<path d="M0 0 C5.23272633 1.63958758 10.15196636 3.38952035 15 6 C11.01508155 7.32830615 9.59951452 6.23204404 5.8125 4.5625 C4.72582031 4.08941406 3.63914063 3.61632812 2.51953125 3.12890625 C1.68808594 2.75636719 0.85664063 2.38382812 0 2 C0 1.34 0 0.68 0 0 Z " fill="#F9F0D3" transform="translate(192,330)"/>
<path d="M0 0 C6.19518473 0.41588046 11.26689311 1.60251894 17 4 C17 4.33 17 4.66 17 5 C10.80481527 4.58411954 5.73310689 3.39748106 0 1 C0 0.67 0 0.34 0 0 Z " fill="#F3E3C1" transform="translate(173,325)"/>
<path d="M0 0 C0.66 0.33 1.32 0.66 2 1 C-3.35714286 7.29464286 -3.35714286 7.29464286 -8.375 7.875 C-9.57125 7.91625 -10.7675 7.9575 -12 8 C-8.9540687 5.96937913 -5.85687334 4.04352805 -2.7421875 2.12109375 C-1.04594593 1.1166082 -1.04594593 1.1166082 0 0 Z " fill="#717272" transform="translate(309,271)"/>
<path d="M0 0 C0.66 0 1.32 0 2 0 C1.42680175 3.32454983 0.45672125 4.73981645 -2 7 C-2.66 7.99 -3.32 8.98 -4 10 C-4 8.02 -4 6.04 -4 4 C-3.01 3.67 -2.02 3.34 -1 3 C-0.67 2.01 -0.34 1.02 0 0 Z " fill="#A4A4A4" transform="translate(265,225)"/>
<path d="M0 0 C1.98073365 0.280828 3.95958448 0.57496614 5.9375 0.875 C7.59072266 1.11863281 7.59072266 1.11863281 9.27734375 1.3671875 C10.17582031 1.57601562 11.07429687 1.78484375 12 2 C12.33 2.66 12.66 3.32 13 4 C11.58297487 3.85769192 10.1663904 3.71099254 8.75 3.5625 C7.56664062 3.44068359 7.56664062 3.44068359 6.359375 3.31640625 C4.17635361 3.02365007 2.1226818 2.57935581 0 2 C0 1.34 0 0.68 0 0 Z " fill="#ECE6CB" transform="translate(173,197)"/>
<path d="M0 0 C0.66 0.66 1.32 1.32 2 2 C4.65537372 2.56520003 7.29144713 2.73788198 10 3 C10 3.66 10 4.32 10 5 C6.7 5.33 3.4 5.66 0 6 C0 4.02 0 2.04 0 0 Z " fill="#F2B945" transform="translate(151,188)"/>
<path d="M0 0 C1.15006091 3.37299744 0.85199953 5.34853215 -0.3125 8.6875 C-0.57675781 9.47511719 -0.84101563 10.26273437 -1.11328125 11.07421875 C-2 13 -2 13 -4 14 C-3.21824485 9.15311808 -1.60155722 4.6233633 0 0 Z " fill="#14543B" transform="translate(255,284)"/>
<path d="M0 0 C1.98 0 3.96 0 6 0 C6.103125 0.598125 6.20625 1.19625 6.3125 1.8125 C7.08876455 4.28243264 8.07088921 5.32251235 10 7 C9.67 7.66 9.34 8.32 9 9 C7.49704815 7.69088122 5.99770689 6.37761608 4.5 5.0625 C3.6646875 4.33160156 2.829375 3.60070312 1.96875 2.84765625 C1.3190625 2.23792969 0.669375 1.62820312 0 1 C0 0.67 0 0.34 0 0 Z " fill="#10553C" transform="translate(214,187)"/>
<path d="M0 0 C-1.24976756 3.65316671 -1.67098753 4.78065836 -5 7 C-5.99 7 -6.98 7 -8 7 C-6.76759083 3.3027725 -4.20634615 0 0 0 Z " fill="#C3B9A6" transform="translate(273,350)"/>
<path d="M0 0 C1.98 0 3.96 0 6 0 C6 0.66 6 1.32 6 2 C6.66 2.33 7.32 2.66 8 3 C8 3.66 8 4.32 8 5 C3.545 4.01 3.545 4.01 -1 3 C-0.67 2.01 -0.34 1.02 0 0 Z " fill="#CA9C56" transform="translate(184,325)"/>
<path d="M0 0 C-1 1 -1 1 -4.5625 1.0625 C-5.696875 1.041875 -6.83125 1.02125 -8 1 C-8 1.66 -8 2.32 -8 3 C-9.98 3.33 -11.96 3.66 -14 4 C-14 3.34 -14 2.68 -14 2 C-9.77220439 0.07827472 -4.39544329 -2.19772165 0 0 Z " fill="#F0BB44" transform="translate(331,188)"/>
<path d="M0 0 C1.19872272 3.59616816 0.72500287 4.28921639 -0.8125 7.625 C-1.16957031 8.42164063 -1.52664063 9.21828125 -1.89453125 10.0390625 C-3 12 -3 12 -5 13 C-3.78184562 8.31479085 -2.30440013 4.29456388 0 0 Z " fill="#17704D" transform="translate(263,162)"/>
<path d="M0 0 C2.97 0.99 5.94 1.98 9 3 C9 3.99 9 4.98 9 6 C4.58763974 6 3.21615077 3.9302707 0 1 C0 0.67 0 0.34 0 0 Z " fill="#05492E" transform="translate(196,245)"/>
<path d="M0 0 C3 2 3 2 3.6875 4.625 C3.790625 5.40875 3.89375 6.1925 4 7 C-0.875 5.25 -0.875 5.25 -2 3 C-1.34 3 -0.68 3 0 3 C0 2.01 0 1.02 0 0 Z " fill="#564F41" transform="translate(233,352)"/>
<path d="M0 0 C6.75 0.75 6.75 0.75 9 3 C5.7 3 2.4 3 -1 3 C-0.67 2.01 -0.34 1.02 0 0 Z " fill="#84602D" transform="translate(190,325)"/>
<path d="M0 0 C1.24546405 2.49092811 0.7767578 3.41080733 0 6 C-0.66 6 -1.32 6 -2 6 C-2 6.66 -2 7.32 -2 8 C-0.68 8.33 0.64 8.66 2 9 C0.02 9 -1.96 9 -4 9 C-2.94124926 5.59687262 -1.99097846 2.98646769 0 0 Z " fill="#124634" transform="translate(274,196)"/>
<path d="M0 0 C-2.97 2.64 -5.94 5.28 -9 8 C-9 4.80780296 -8.76394209 3.60391451 -7 1 C-2.6097561 -1.30487805 -2.6097561 -1.30487805 0 0 Z " fill="#0B5138" transform="translate(285,180)"/>
<path d="M0 0 C4.55737263 0.43820891 7.57653445 0.85041169 11 4 C9.02 4 7.04 4 5 4 C5 3.34 5 2.68 5 2 C3.35 1.67 1.7 1.34 0 1 C0 0.67 0 0.34 0 0 Z " fill="#1B9467" transform="translate(203,165)"/>
<path d="M0 0 C-2 2 -2 2 -4.3828125 2.1953125 C-5.28773438 2.17210937 -6.19265625 2.14890625 -7.125 2.125 C-8.49011719 2.09792969 -8.49011719 2.09792969 -9.8828125 2.0703125 C-10.58148438 2.04710937 -11.28015625 2.02390625 -12 2 C-12 1.67 -12 1.34 -12 1 C-3.96428571 -1.27678571 -3.96428571 -1.27678571 0 0 Z " fill="#F6EACC" transform="translate(332,325)"/>
<path d="M0 0 C4.29 0.33 8.58 0.66 13 1 C13 1.33 13 1.66 13 2 C11.39884424 2.2493357 9.79379841 2.47378648 8.1875 2.6875 C6.84751953 2.87892578 6.84751953 2.87892578 5.48046875 3.07421875 C3 3 3 3 0 0 Z " fill="#C28D47" transform="translate(320,322)"/>
<path d="M0 0 C1 3 1 3 -0.4375 6.1875 C-1.2109375 7.5796875 -1.2109375 7.5796875 -2 9 C-2.33 9 -2.66 9 -3 9 C-3 6.36 -3 3.72 -3 1 C-2.01 0.67 -1.02 0.34 0 0 Z " fill="#116545" transform="translate(264,283)"/>
<path d="M0 0 C0.66 0 1.32 0 2 0 C1.25675659 2.39489543 0.52942646 3.70777616 -1.69140625 4.93359375 C-3.44073501 5.67219923 -5.21934149 6.34049685 -7 7 C-6.25 5.0625 -6.25 5.0625 -5 3 C-2.9375 2.375 -2.9375 2.375 -1 2 C-0.67 1.34 -0.34 0.68 0 0 Z " fill="#166A4B" transform="translate(297,250)"/>
<path d="M0 0 C0.33 0 0.66 0 1 0 C1.33 2.31 1.66 4.62 2 7 C0.02 7.99 0.02 7.99 -2 9 C-1.51421457 5.87709365 -1.0013988 3.00419641 0 0 Z " fill="#178D60" transform="translate(262,188)"/>
<path d="M0 0 C1.32 0.33 2.64 0.66 4 1 C-1.75 6 -1.75 6 -4 6 C-4 4.68 -4 3.36 -4 2 C-2.68 2 -1.36 2 0 2 C0 1.34 0 0.68 0 0 Z " fill="#156E4C" transform="translate(289,173)"/>
<path d="M0 0 C3.76607955 1.25535985 4.26441793 2.52883585 6 6 C6 6.99 6 7.98 6 9 C1.3125 5.484375 1.3125 5.484375 0 4 C0 2.68 0 1.36 0 0 Z " fill="#125A3F" transform="translate(215,263)"/>
<path d="M0 0 C-1 3 -1 3 -3.4375 4.75 C-4.7059375 5.36875 -4.7059375 5.36875 -6 6 C-6.66 5.67 -7.32 5.34 -8 5 C-5.81209839 1.71814759 -4.05191042 0 0 0 Z " fill="#159A69" transform="translate(297,254)"/>
<path d="M0 0 C0.33 0.66 0.66 1.32 1 2 C1.99 2.33 2.98 2.66 4 3 C-0.455 4.485 -0.455 4.485 -5 6 C-3.35 4.02 -1.7 2.04 0 0 Z " fill="#EBC264" transform="translate(312,197)"/>
<path d="M0 0 C1.5 1.375 1.5 1.375 3 3 C3 3.66 3 4.32 3 5 C3.99 5 4.98 5 6 5 C6.33 6.32 6.66 7.64 7 9 C6.34 8.67 5.68 8.34 5 8 C5 7.34 5 6.68 5 6 C4.38125 5.9175 3.7625 5.835 3.125 5.75 C1 5 1 5 -0.25 2.9375 C-0.62125 1.9784375 -0.62125 1.9784375 -1 1 C-0.67 0.67 -0.34 0.34 0 0 Z " fill="#179E6B" transform="translate(190,188)"/>
<path d="M0 0 C2.97 1.65 5.94 3.3 9 5 C8.34 5.66 7.68 6.32 7 7 C5.82780457 6.21654285 4.66236332 5.42297164 3.5 4.625 C2.8503125 4.18414062 2.200625 3.74328125 1.53125 3.2890625 C1.0259375 2.86367187 0.520625 2.43828125 0 2 C0 1.34 0 0.68 0 0 Z " fill="#035433" transform="translate(200,177)"/>
<path d="M0 0 C0.66 1.32 1.32 2.64 2 4 C-0.31 4.66 -2.62 5.32 -5 6 C-5 5.34 -5 4.68 -5 4 C-3.37373596 2.61767557 -1.7074998 1.28062485 0 0 Z " fill="#05A76B" transform="translate(301,170)"/>
<path d="M0 0 C-3.6678852 1.96189209 -6.87248551 3.39301257 -11 4 C-8.32997607 0.73663741 -4.08378642 -2.04189321 0 0 Z " fill="#55391C" transform="translate(303,328)"/>
<path d="M0 0 C7.75 0.75 7.75 0.75 10 3 C8.5199159 2.88637738 7.04089926 2.75877092 5.5625 2.625 C4.73878906 2.55539062 3.91507813 2.48578125 3.06640625 2.4140625 C2.38449219 2.27742188 1.70257813 2.14078125 1 2 C0.67 1.34 0.34 0.68 0 0 Z " fill="#FDF4DD" transform="translate(165,324)"/>
<path d="M0 0 C0.66 0.33 1.32 0.66 2 1 C2.625 3.5625 2.625 3.5625 3 6 C2.01 6.33 1.02 6.66 0 7 C-0.66 5.35 -1.32 3.7 -2 2 C-1.34 2 -0.68 2 0 2 C0 1.34 0 0.68 0 0 Z " fill="#149866" transform="translate(238,282)"/>
<path d="M0 0 C-3.465 2.97 -3.465 2.97 -7 6 C-6.75 3.625 -6.75 3.625 -6 1 C-2.69333333 -1.34666667 -2.69333333 -1.34666667 0 0 Z " fill="#115B41" transform="translate(284,259)"/>
<path d="M0 0 C0.33 0 0.66 0 1 0 C1 2.31 1 4.62 1 7 C0.01 7.33 -0.98 7.66 -2 8 C-2.125 5.125 -2.125 5.125 -2 2 C-1.34 1.34 -0.68 0.68 0 0 Z " fill="#0B6241" transform="translate(249,219)"/>
<path d="M0 0 C2.50298434 2.93828597 3.46930939 5.17902761 4 9 C3.01 8.67 2.02 8.34 1 8 C0.67 5.36 0.34 2.72 0 0 Z " fill="#126144" transform="translate(243,212)"/>
<path d="M0 0 C0.99 0.33 1.98 0.66 3 1 C4.1875 3.5625 4.1875 3.5625 5 6 C2.03 5.505 2.03 5.505 -1 5 C-0.34 4.67 0.32 4.34 1 4 C0.67 2.68 0.34 1.36 0 0 Z " fill="#A88948" transform="translate(179,193)"/>
<path d="M0 0 C0.99 0.495 0.99 0.495 2 1 C2.66 0.67 3.32 0.34 4 0 C4.625 2.375 4.625 2.375 5 5 C4.34 5.66 3.68 6.32 3 7 C0 3.375 0 3.375 0 0 Z " fill="#0A6141" transform="translate(185,184)"/>
<path d="M0 0 C0.33 0.66 0.66 1.32 1 2 C1.66 2 2.32 2 3 2 C3.33 4.31 3.66 6.62 4 9 C3.67 8.34 3.34 7.68 3 7 C2.34 7 1.68 7 1 7 C0.67 4.69 0.34 2.38 0 0 Z " fill="#106445" transform="translate(239,171)"/>
<path d="M0 0 C2.97 0.33 5.94 0.66 9 1 C9 1.99 9 2.98 9 4 C6.03 3.01 3.06 2.02 0 1 C0 0.67 0 0.34 0 0 Z " fill="#C69C5A" transform="translate(198,332)"/>
<path d="M0 0 C3.82097239 0.53069061 6.06171403 1.49701566 9 4 C6.36 3.67 3.72 3.34 1 3 C0.67 2.01 0.34 1.02 0 0 Z " fill="#765829" transform="translate(199,328)"/>
<path d="M0 0 C2.31 0 4.62 0 7 0 C3.93882432 2.62386487 3.26826873 3 -1 3 C-0.67 2.01 -0.34 1.02 0 0 Z " fill="#CC9E57" transform="translate(308,327)"/>
<path d="M0 0 C4 6 4 6 4 10 C3.34 10 2.68 10 2 10 C0.68373308 6.38026598 0 3.90432869 0 0 Z " fill="#06442A" transform="translate(247,292)"/>
<path d="M0 0 C0.33 0 0.66 0 1 0 C1.26252625 4.33168317 0.29243536 7.8803623 -1 12 C-1.33 12 -1.66 12 -2 12 C-2.28571429 3.42857143 -2.28571429 3.42857143 0 0 Z " fill="#1D9A6B" transform="translate(252,214)"/>
<path d="" fill="#000000" transform="translate(0,0)"/>
<path d="" fill="#000000" transform="translate(0,0)"/>
<path d="" fill="#000000" transform="translate(0,0)"/>
<path d="" fill="#000000" transform="translate(0,0)"/>
<path d="" fill="#000000" transform="translate(0,0)"/>
<path d="" fill="#000000" transform="translate(0,0)"/>
<path d="" fill="#000000" transform="translate(0,0)"/>
<path d="" fill="#000000" transform="translate(0,0)"/>
<path d="" fill="#000000" transform="translate(0,0)"/>
<path d="" fill="#000000" transform="translate(0,0)"/>
<path d="" fill="#000000" transform="translate(0,0)"/>
<path d="" fill="#000000" transform="translate(0,0)"/>
<path d="" fill="#000000" transform="translate(0,0)"/>
<path d="" fill="#000000" transform="translate(0,0)"/>
<path d="" fill="#000000" transform="translate(0,0)"/>
<path d="" fill="#000000" transform="translate(0,0)"/>
<path d="" fill="#000000" transform="translate(0,0)"/>
<path d="" fill="#000000" transform="translate(0,0)"/>
<path d="" fill="#000000" transform="translate(0,0)"/>
<path d="" fill="#000000" transform="translate(0,0)"/>
<path d="" fill="#000000" transform="translate(0,0)"/>
<path d="" fill="#000000" transform="translate(0,0)"/>
<path d="" fill="#000000" transform="translate(0,0)"/>
<path d="" fill="#000000" transform="translate(0,0)"/>
<path d="" fill="#000000" transform="translate(0,0)"/>
<path d="" fill="#000000" transform="translate(0,0)"/>
<path d="" fill="#000000" transform="translate(0,0)"/>
<path d="" fill="#000000" transform="translate(0,0)"/>
<path d="" fill="#000000" transform="translate(0,0)"/>
<path d="" fill="#000000" transform="translate(0,0)"/>
<path d="" fill="#000000" transform="translate(0,0)"/>
<path d="" fill="#000000" transform="translate(0,0)"/>
<path d="" fill="#000000" transform="translate(0,0)"/>
<path d="" fill="#000000" transform="translate(0,0)"/>
<path d="" fill="#000000" transform="translate(0,0)"/>
<path d="" fill="#000000" transform="translate(0,0)"/>
<path d="" fill="#000000" transform="translate(0,0)"/>
<path d="" fill="#000000" transform="translate(0,0)"/>
<path d="" fill="#000000" transform="translate(0,0)"/>
<path d="" fill="#000000" transform="translate(0,0)"/>
<path d="" fill="#000000" transform="translate(0,0)"/>
<path d="" fill="#000000" transform="translate(0,0)"/>
<path d="" fill="#000000" transform="translate(0,0)"/>
<path d="" fill="#000000" transform="translate(0,0)"/>
<path d="" fill="#000000" transform="translate(0,0)"/>
<path d="" fill="#000000" transform="translate(0,0)"/>
<path d="" fill="#000000" transform="translate(0,0)"/>
<path d="" fill="#000000" transform="translate(0,0)"/>
<path d="" fill="#000000" transform="translate(0,0)"/>
<path d="" fill="#000000" transform="translate(0,0)"/>
<path d="" fill="#000000" transform="translate(0,0)"/>
<path d="" fill="#000000" transform="translate(0,0)"/>
<path d="" fill="#000000" transform="translate(0,0)"/>
<path d="" fill="#000000" transform="translate(0,0)"/>
<path d="" fill="#000000" transform="translate(0,0)"/>
<path d="" fill="#000000" transform="translate(0,0)"/>
<path d="" fill="#000000" transform="translate(0,0)"/>
<path d="" fill="#000000" transform="translate(0,0)"/>
<path d="" fill="#000000" transform="translate(0,0)"/>
<path d="" fill="#000000" transform="translate(0,0)"/>
<path d="" fill="#000000" transform="translate(0,0)"/>
<path d="" fill="#000000" transform="translate(0,0)"/>
<path d="" fill="#000000" transform="translate(0,0)"/>
<path d="" fill="#000000" transform="translate(0,0)"/>
<path d="" fill="#000000" transform="translate(0,0)"/>
<path d="" fill="#000000" transform="translate(0,0)"/>
<path d="" fill="#000000" transform="translate(0,0)"/>
<path d="" fill="#000000" transform="translate(0,0)"/>
</svg>
